/* XPM */
static char *_25_80x80[] = {
/* columns rows colors chars-per-pixel */
"80 80 142 2 ",
"   c #362F25",
".  c #373026",
"X  c #383127",
"o  c #3B342B",
"O  c #3F382E",
"+  c #40392F",
"@  c #433C33",
"#  c #474036",
"$  c #484137",
"%  c #4C443B",
"&  c #4F483F",
"*  c #50483F",
"=  c #534C43",
"-  c #575047",
";  c #585047",
":  c #5C544B",
">  c #5F584F",
",  c #60584F",
"<  c #645C53",
"1  c #685F56",
"2  c #676057",
"3  c #686057",
"4  c #6C645B",
"5  c #70675E",
"6  c #70685F",
"7  c #746C63",
"8  c #786F66",
"9  c #777067",
"0  c #787067",
"q  c #7C746B",
"w  c #80776E",
"e  c #81786F",
"r  c #847B73",
"t  c #887F76",
"y  c #898077",
"u  c #8D837A",
"i  c #90877E",
"p  c #92887F",
"a  c #958B82",
"s  c #9A8F87",
"d  c #998F85",
"f  c #998F85",
"g  c #9A9086",
"h  c #9A9087",
"j  c #9B9087",
"k  c #9B9187",
"l  c #9A9087",
"z  c #9A9188",
"x  c #9B9188",
"c  c #9B9289",
"v  c #9C9188",
"b  c #9C9288",
"n  c #9C9289",
"m  c #9C928A",
"M  c #9D938A",
"N  c #9E938A",
"B  c #9E948A",
"V  c #9E948B",
"C  c #9F948B",
"Z  c #9F958B",
"A  c #9F958C",
"S  c #9D938A",
"D  c #A0958C",
"F  c #A0968C",
"G  c #A0968D",
"H  c #A1968D",
"J  c #A1978D",
"K  c #A1978E",
"L  c #A2978E",
"P  c #A1968D",
"I  c #A2988E",
"U  c #A3988E",
"Y  c #A2988F",
"T  c #A3988F",
"R  c #A3998F",
"E  c #A3988F",
"W  c #A39990",
"Q  c #A49990",
"!  c #A49A90",
"~  c #A49A91",
"^  c #A59B91",
"/  c #A69A91",
"(  c #A69B91",
")  c #A69B92",
"_  c #A69C92",
"`  c #A79C93",
"'  c #A79D93",
"]  c #A69C92",
"[  c #A89D93",
"{  c #A99D94",
"}  c #A89E94",
"|  c #A99E94",
" . c #A99E95",
".. c #A99F95",
"X. c #AA9F95",
"o. c #AA9F96",
"O. c #AB9F96",
"+. c #AC9F96",
"@. c #A99E94",
"#. c #ABA096",
"$. c #ABA197",
"%. c #ACA096",
"&. c #ACA097",
"*. c #ADA097",
"=. c #ACA197",
"-. c #ADA197",
";. c #ACA097",
":. c #AEA198",
">. c #ADA298",
",. c #AFA399",
"<. c #AFA49A",
"1. c #AEA299",
"2. c #B0A49A",
"3. c #B0A49B",
"4. c #B1A49B",
"5. c #B2A59C",
"6. c #B3A69C",
"7. c #B3A69D",
"8. c #B3A79D",
"9. c #B4A79D",
"0. c #B4A79E",
"q. c #B2A59C",
"w. c #B5A89E",
"e. c #B5A89F",
"r. c #B5A99F",
"t. c #B6A99F",
"y. c #B5A89F",
"u. c #B7AAA0",
"i. c #B8ABA1",
"p. c #BCAFA5",
"a. c #BAADA2",
"s. c #BEB0A6",
"d. c #C0B2A8",
"f. c #C6B7AD",
"g. c #C2B4AA",
"h. c #C7B8AE",
"j. c #C8B9AF",
"k. c #C9BAAF",
"l. c #C8B9AF",
"z. c #CCBDB2",
"x. c #D2C2B7",
"c. c #D6C5BB",
/* pixels */
"a a n n u 4 = i K n n n n n n n h s s s s s s s h n n h h u 4 7 u.,.7.W W Y { W #.#.W W { W #.K n n n 7 = t j.e.W W Y { W W W W W { #.{ { { W W { { W #.{ n n n ",
"s n n n p 4 r n Y n n n n n n h h h h s s s s h n n s s s i 4 5 s.#.K K Y W W W W W W W W K #.{ n n n 7 ; ,.j.#.W W { W K K K K K a W W K Y n n W Y Y K n n n n ",
"s n n n u < i u n n n n n n h h n h h s s h h h h s s s a a < # i #.W K n n n n n n n n n n { W n n n 4 < z.#.{ W W W K n K n n h a W n n n n K #.#.n n n n n n ",
"a n W s w > a a s h h h a s s h h s h n n n n h s a u u y q # . @ 4 r i h s a a s n n n n n n n n a h > < g.#.W W W W n a Y n s a n K W W W { e.7.n n n n n n n ",
"h n a r 7 > a n h s s s s h s h n h a u r q 7 4 4 < > = = & @ $ + @ & * > < < 4 7 q r 4 q u u u u u r @ 4 g.e.W { { W n a K n n n n K n n K W n a a n n n n n n ",
"a u q q * & q t u i a a u r 4 7 6 < = & @ @ > 4 q y u u u i p a w q u u r q 7 7 4 4 < ; > < < > > = $ O 7 #.i.n n #.K n n n n n n n n n n n n n s n K n h a n n ",
"q q 7 - X X @ = > > < > - = $ # @ @ @ X X @ 6 h 7.e.e.e.e.e.7.7.7.7.7.e.e.7.7.7.{ W n s K a t q 7 4 @ X 4 r n ,.e.7.K u u i a a a a a a a a p u u u u u r q r u ",
"> = & & = ; > < 4 6 7 q q 7 q r r r q < X > u e.7.7.{ 7.7.7.7.{ 7.7.7.7.7.7.#.7.7.7.7.7.7.7.7.#.W r * X = q q r p a 7 7 q q q q q q q q q q 7 7 7 7 7 4 < > 4 4 ",
"q r u a K W { { { { { #.{ p a n n n s t = = u 7.7.7.,.7.7.7.7.K ,.7.7.7.7.,.Y 7.7.{ ,.7.7.7.7.7.{ r > 4 > & < < > > @ & > - = = = * & & & & @ @ + @ = < 4 0 r r ",
"W { W Y W W K n n n n n n n n n s h h s w & 4 n { Y W { { ,.,.,.,.,.W { { { { W W s K K K K K K a q ; > ; > < < < 4 4 4 6 7 4 6 8 0 q q q q < X X < r h { 7.,.#.",
"h n n n Y K K n n a n n n n n n h s s a r = & q n { n n n n n n n n n n n n n n n K K K n h a a r 4 & 7 u n n n n K n n n n a a n n n n n n r @ < h { W K K n n ",
"s n n W { K n n n s n n n K n h s s s a u r > < r #.{ K n n n n n a n n K Y Y Y K n a u r 7 7 7 < + & q n n n n n n n n n n n n n n n a s n r & q W n n n n s n ",
"a h n W n n n n n n n n W K n n h s s s s h r = 7 u K K n a p u u q r t t r q 7 4 < > > > = = ; & X @ 7 n K n n a n n n n n n n h h h a s a > O w Y s n n n a n ",
"s n n n n n h K n n h n W h s s a s s s a s u > & > > 4 7 7 4 4 2 < 4 5 0 r u p r w y u p a a h p 4 @ 7 n K n n a n n n n n n n h s s s s u 7 & 7 K u n n n n n ",
"h n n n n a u Y h s h W n s a p a s s a u q < @ X X X @ 6 s h K { 7.i.i.i.e.7.,.,.{ { { W { W K #.h > 7 n n h h s h n n n n h s s s s s a s u > 7 n s K n n n n ",
"s n n h h s s h s s h n h s i a i r q 4 < < 6 0 7 > @ r g.s.e.7.e.e.7.,.{ W W Y W W W { W W W n W n < < u a a i u s p u p h h s s s s a u h u > 7 W n n n n n n ",
"a s s s s s s s s s s a i t q 7 4 < 2 7 r a n K n r & a 7.W W K W ,.W W W { Y Y #.e.7.,.{ W W { W u > + @ & > < 4 7 < - < y a s s s s a a a r > > u n h s h s s ",
"a a s h h n K n a u q 7 4 4 4 7 q u a s n n n n n t < u W W { n K ,.W n { W W { ,.7.#.{ W n W W K n r @ & > > ; = & X   X & < 7 w t u u r 7 > @ > s h s i h h h ",
"h K K K n a u q 4 < > 4 r u a a h h s h n n a h n u 7 W W { W { { { { { { { W W W W W { W K K n n K a > 7 s 7.,.{ Y t ; = < 2 > > > < > & X . X 4 { n s h K K h ",
"a u r 7 4 < , < 7 r r a n n h h s h h n n n n n n u 7 #.K W { W W { { { W W W W W W n n n n n n s Y s < q 7.i.e.7.7.7.n K 7.7.{ K a r 7 < & @ X 4 7.#.{ 7.{ #.#.",
"< < > < 4 q r i s h h h s h h n h p n n n n n h a w 4 ,.W W W W W W Y K K n n n n n n n n n n n n n n 4 4 7.u.7.7.7.7.7.7.7.7.7.7.7.{ ,.,.s r = 4 { ,.{ Y h p r ",
"< 6 q t a s s a a h h n n n n n h u n n n n n u q > = ,.#.W Y n n n n n n K n K { 7.7.,.{ W W K K s r > > { 7.7.7.7.7.7.7.7.7.{ ,.7.7.7.7.7.{ 4 > r q 7 4 > ; > ",
"r u a s h h n a h n n n n n n n n n n n n n h i < X & W g.{ Y W W n n n s s K n a q r t q 7 2 > = # @ X & h e.7.7.7.7.W #.7.7.7.7.7.7.K #.#.K q # = = = > 4 q r ",
"a a h n n n n n n n n a a h h s s s h h h h s r = $ @ < s i.g.g.7.K s u q 7 4 > & O > 4 4 4 > > < < , = @ w #.W W { { K { ,.7.7.7.7.{ r a W n r @ @ 4 r i a a s ",
"n n n n n n n n n n h s s a a n n n h a a a u < & 7 > X & < < > > > = ; > , , & X & s { W W W n n h s u > 2 K K s n n n n n n Y W K n p n n u 4 & 7 u a s n n n ",
"u a n Y Y s 0 u a a p u r q 0 q q 7 4 4 > - = @ + & & = > 4 < @ 7 i n W { #.,.a 2 = n ,.W n n n n n n a q ; q t n n n n n n n s i a n n a r 7 $ & < 4 7 q w r r ",
"> > , < < = O & = = = > > > > > > > < < < 4 4 7 r a K { ,.7.#.u n e.e.e.7.,.#.7.u > 6 7.Y n n s n n h a t = = q a K K Y Y n u q q q y r q 2 & & & & & @ & = > > ",
"< 4 4 4 4 4 < @ . X > p n K Y { { #.,.7.7.7.7.e.e.7.7.7.7.7.7.7.7.7.7.7.7.7.7.7.{ 4 < n n s s s s s h s q # X = 7 7 7 7 7 4 > & < & > 4 7 q r u a a i , 2 r q 4 ",
"a n n n s s i < X > { i.e.e.e.u.7.e.e.e.i.e.7.7.7.7.7.7.7.7.7.7.#.7.7.7.#.7.7.7.7.q = r a a u w r r q 4 = = > < 4 6 7 6 4 < > & X X < u n Y K K K K n u u n n s ",
"n Y n n n n n r & p i.W a 7.7.7.7.7.7.7.7.7.7.W ,.7.7.K 7.e.7.#.h 7.7.#.i ,.7.7.7.8 @ < q q 4 & = > 2 q i a u s K K n n n u a u < @ w K n n n n n n n h h n n n ",
"s h n n n n n u > K e.{ n 7.7.7.7.7.7.7.{ 7.,.y Y 7.#.W { ,.{ { { ,.7.#.u #.7.7.W r > X @ & = < q a n K n n n a n n n n n n n n r $ q n n n n n n n h n n n n n ",
"a u n n n h h r > { i.7.7.7.7.7.7.7.7.7.7.7.{ h Y K n n n n n n n n K K n K K K n u 4 X - r a n n n h n n n n u n n n n n n n n y & < a n n n n n n h s s h n n ",
"a a s s s a u 4 < ,.#.7.e.e.e.e.7.7.7.#.W K n n n n n n n n n n n n n n n n n n n a 7 & q Y n n n n u u n n n n n n n a n n n n u & 6 n n n n n h s s h s s s s ",
"a s s s s s u < > n { 7.e.#.{ { { W Y K n n n n n n n n n n n n n n n n n n n n a u 4 & r Y n n n n s s n n n n n n n n n n n a u & 8 K n n n a a h h n s s s s ",
"a s s s s s u > & < 7 n 7.{ K n Y { { Y n n n n n n n n n h n n Y W W W K n a u q , & X < n n n n K n h h n n a s n n n n h s p y & < s n n n n n n n h s s s s ",
"a a a u r q < @ & @ > r n { ,.7.#.n a u i n n n n n n n n Y W W n a i a a u q < @ $ 7 < @ t K K K n h h n n n n h h s s a a i p r & X = < 8 r a s u a h s a p s ",
"7 4 < > = > 5 1 = $ @ = > < 7 q q q 7 4 q r u h n n h h s u q 4 < < 4 4 < = $ X . & < < X = u a p t i a i u u y r r q 8 7 4 2 < = X .   X X @ = > = q r r r u r ",
"& O & t w W z.j.i.{ i 7 < & O X + @ + @ = > < 4 7 7 4 > & @ X X X X O X X + @ @ @ @ & & & & > < < < > = = & & # @ @ @ @ & @ & = = ; ; = & = > ; = = = = > > > = ",
"q = > 7.W { ,.e.i.i.i.u.7.{ i 7 < = & $ @ # $ & # X X X * < 4 4 8 q w q < w u i u t t i s h s s s a u < 7 6 < > = $ X 4 K 7 u #.7.7.,.Y h #.7.#.{ Y r 7 7 8 r u ",
"u = < i.W s { W #.,.{ W n 7.7.7.W n a p y u i a t & X 4 Y #.K n W K n n a n n K Y { #.{ Y K K n h s n a n n s i i q # w e.W n W 7.,.7.e.e.7.7.7.7.7.{ Y K K 7.7.",
"4 @ < s.i.W { W { ,.#.W W #.W W W { { W W { W { n = & W e.K n n n s a n n n Y K n s n n n n n n n n n n n h n n n u = w e.7.{ 7.7.K 7.7.7.7.7.7.K ,.7.{ ,.7.7.{ ",
"r < & s j.{ W ,.u.#.{ W { W { W W { { W W { Y W h = & K ,.n s h n n n a n W W n n s n n n n n n n n n n n n n n n u = , W i.7.7.7.7.7.7.n { 7.7.W 7.7.7.7.7.7.K ",
"s 4 & a s.W { i.#.Y W { W W W W { n { W W W Y n q @ O q 7.Y s h n K n a n W K n n n n n n n u p K n n n n h n n n u > 7 e.i.e.7.7.7.7.7.n { 7.e.e.7.,.W { { W W ",
"s 4 & K i.n W ,.W K W W W W Y K W s Y n n n n i r = X r 7.W n n { Y n n n n h a s h s s s s r u W s s s s s h a s u > r i.7.#.#.7.7.{ ,.{ W W W W K n a n n n n ",
"a 4 & K g.{ n n n n n n n n n n n n n n n n K n s > X w ,.n n K W n n h h s s a h s s s s s p K n s s s s s s a h u = 0 i.e.#.,.7.{ a K n n n n h n n n n n n n ",
"r < & y 7.,.Y n n K n h h K n n n n n n n n n n a > X 7 7.n K h n s s a h s s a h h K h s s h h n h s a p i a h p 7 @ 2 W e.7.,.{ W n n n n h n s n n n i u s i ",
"> & & ; q a Y n n ,.7.W { #.#.{ n u u a a u r q 4 @ . > Y #.h K s s s a s s s s a a h W K Y K a h { Y Y W Y s u q = X & 4 q q q r a s a a i a s a a a u q < q 6 ",
"  - 7 ; & < r u u r { ,.{ K K a r < = < > > , > > > = @ 2 s r #.{ n n W #.Y K n u q q u u w 0 7 q r u u y q 7 7 < O X @ @ O + @ & 4 7 7 q 9 q q 7 7 4 > & X X X ",
"= > > = @ X & = = @ = = = = = & & & $ & > t { #.#.{ K w & < < a i.e.,.W a u r 7 < = & > > * O O @ @ # & & & * > 4 0 t u t q < @ @ @ O + @ @ & = = & & & @ @ * = ",
"s h a u r < = 4 < > = & # @ X + q K { { #.e.i.7.7.7.7.#.r q = 4 u t q 4 > > = = 4 q r u a 7 X + = > 4 7 w r r K #.7.7.e.7.,.r 7 u r 4 @ . @ 7 i u u p a r w h h ",
"a s n n n u u n n s a u u r 4 & K i.e.7.7.7.7.#.7.,.,.7.{ 7.s < - = < 7 r a a r s n K K n q & 7 n #.7.i a W { e.7.{ { 7.7.{ i W 7.,.r & X > i W K n n s n s K n ",
"s h n n n n p r n n a u n n q & a e.7.,.7.7.{ ,.7.W { 7.7.7.7.u & 7 n K K n n n s n n n y < 4 K 7.7.7.i n 7.7.7.7.7.7.Y 7.7.7.7.7.h < X > r n K n n n n n n K n ",
"s n n n n n a p n n h a n u 4 @ q { 7.{ { W n n K W ,.7.7.,.W r > a n h h s n n a n h u < 4 K 7.7.7.7.,.7.7.7.e.7.7.7.,.7.7.7.7.{ q @ & q n K n n n n n n n n n ",
"a s a n n n n n K n n n n a u - w 7.7.7.W n n s n K W Y Y K a 7 < a s p w q r u t r q > > n e.7.7.7.7.W n Y { { { ,.7.7.,.#.{ W u > X 4 r n n n h h n n h h h h ",
"a s s s h h n K n n n n n K a > 8 e.7.{ h t a { { W K n i w 7 = & > > > = > < > = @ O X q e.7.7.7.e.W n n n n n n n K n h n n a 4 X & q a a u n s s a s s a p a ",
"a s s u a s h K h u h n n n a > > r u r 0 < $ < < ; = & & & = ; , 4 7 q y i a i r < X X q ,.,.7.7.7.n n n n n h n n n n i n n r & @ q K n p r h s s a s s a a s ",
"a s s a s h h n s a s s h h a < X @ @ & = > < 7 7 < 7 r u a s n n n n n n n n n n r = X > r #.7.7.W n n n n n n n n n n n n u > X < a Y n s a h s s s s s s h h ",
"s h s s s h s s s s s s s s a < @ < q y i a n n n n n a n n n n n n n p h n h h a r 4 X @ a 7.{ Y K n W W K K K n a a h a r < X X > r a n h p u i h h h h h h s ",
"t h n n n h s a p s h s s s u < < a W n a n n n n n n a n n n n h h s u s h s s p a 8 & & n { n n n ,.7.{ { Y s u w 7 7 4 = X . X X = 4 < 2 4 < < q q r r t u u ",
"- , 4 7 w u p i 7 u a a a h u < < h W n n n n h s s h h h s s a s s s s h s s s a h u 4 & t W a u 0 r i w 7 < > = & @ @ @ & = * & @ X X X X X X X @ & & & * = = ",
"7 7 4 = O @ & = & > 4 0 r u y < > p W Y n i a s a a s s a n h a n n n n h a u u a u r q & > < > = # @ @ O @ & = > 4 7 w u a a u r q 6 > X @ > 7 w r r r r q 7 q ",
"n K h q @ @ ; & = < < , = & ; & & 7 q q 7 < 7 q q q q 7 7 q w w q q q q q 7 7 7 7 4 < = X X X X & ; < > 4 p n n Y W { #.#.W K n n n s r & 2 u W K K Y Y n n n K ",
"h n a q = > W a u W W n r 4 < > > > ; = & @ @ @ @ > = = < < , > > > > = @ = = = * & @ X X @ 4 p n n n s Y #.{ W n n n n n n n n a n n u = > q Y K n a n n n n a ",
"h n n n q > h K n n n K W K n K Y K n i p u t 4 = 4 < u K Y K n s a a u 7 i s p u r q 4 X @ w #.7.W n K Y n n n n n n s n n n n i n n u = > t K n n s n n h n n ",
"a a n n i > r { h s h h h h n n h p K n n n n t & & u Y n n n K n n n n n n n n s n n y * X < a 7.K n n n n n n n n n h n n n n n n n u & < u K s s h h a u h h ",
"a s n n s 4 7 K s s s a s s s s s s n n n h n i = > n n n a n n n n n n n n n a u n n a < X * n W h n n n n n n n n Y W n K n h h h s w @ = q t p a i a h s h s ",
"a a u u a 0 > n K h n K h h s h s s h n n h s u > < n n n n n n n n n a n n n n s n p r 4 X & a { n n n n n s n n n n Y Y n s s p u r > O @ & = < 4 4 4 q u a h ",
"4 4 4 = 4 < @ > 7 4 5 s n n n Y Y n s s h n n r < = 0 u n n n n n n n h n n n n n n h p q & O q { K n n n n a h s s s s s s s h i q < * 8 u r 8 4 < = & & = < 7 ",
"& < < > > $ & = & @ X @ & = > < 4 7 7 7 q r r 7 $ @ 7 n n n n n n n s s h h h h h h s s i 4 X < h Y h h h s h n K W Y n s a h s u q = 7 W 7.7.7.,.W a n u 7 = X ",
"u 7.,.7.#.n n { W a 4 & < < q q 7 7 4 4 < > = @ X = a n n a a h s s a a s s s s s s s s s r & & r { #.n a s s s h n K #.#.Y n u q > > K ,.7.7.,.7.7.7.7.7.,.r + ",
"K e.7.7.{ #.,.Y { W p < n n n n n n n n a p w & . & u n s s s h s s s s s h h h s s s s s p > X 4 a a r h Y K K n p q r u u q 4 > X = a n n s i s n n n n n r & ",
"q p h n n K n n n n r < i K K n h h a s h s a 2 X & r a a s a h n n n n n n h n n h a a p u 7 X @ , 4 4 a Y n a u q < = = & @ X X X X = ; > < < 4 7 0 q r r q = ",
"& = - < 4 7 r r r q < @ = 7 r r q 7 4 6 4 4 < = X + < 7 7 q q q w r r r w q q r r u y w t q > X X @ + @ & - > > < 5 4 < > > > > > > > > & $ - - = - ; > > > < = ",
"q 7 4 7 4 @ X @ & & & = ; = = < 2 4 6 7 7 6 ; < 4 < < = $ @ @ @ @ & & * = = = = = = > = > > X X , 7 4 2 = X @ 7 7.j.j.i.u.,.K n a u r r q 7 r r r r r r r r r r ",
"n r u Y a 4 @ & q u a h n a w n K K K n n n s n n h a r 0 > X & t h { W n s i 0 = 4 4 2 < > = & & * < q > X = a g.,.,.,.7.s.z.z.g.g.i.e.7.7.e.e.e.7.7.7.,.,.#.{ ",
"n n W { Y r < r Y n h n n n s n n n n n n n n n n n n n n t & 8 s.W { 7.7.#.#.#.a n { W W Y n h p 7 & @ X & < r ,.,.{ W W W #.7.7.e.e.e.e.#.#.{ { { W W W W W W ",
"n W { W W u 4 a K a a n n n n n n n s a n n n n n n K n n i & < 7.,.W { W W W W W W W W W n #.{ { W a > X 7 7.z.x.z.i.{ W W K { W W { { { { W ,.{ W W #.#.{ W W ",
"Y { W W W u 7 n n n n n n n n K n n u r n n n n n n n n n a = 2 e.7.,.{ W W W { W W W W W n #.W W W { q $ q g.c.u.,.#.W W W W { W s n 7.W W 7.i.W W W n e.{ W W ",
"n K W W a 7 6 Y n n n n n n n K n n a a n n n s a n n n n a > r u.W { { W W { { { #.e.7.#.{ { K W W W r & 7 7.z.{ W W n W { { W W n W ,.{ ,.g.,.W { Y r ,.#.Y n ",
"h n n h r > 2 W n n n n n n n n n n n n n n n s s n n n n a > w e.{ 7.{ W W { { { i.e.{ W { { n n W h 7 @ < ,.j.W W W n K W { W W { e.i.s.g.i.W W { Y r ,.W n n "
};
