/* XPM */
static char * arche_xpm[] = {
"64 64 703 2",
"  	c #000002",
". 	c #000000",
"+ 	c #060604",
"@ 	c #050503",
"# 	c #040402",
"$ 	c #000100",
"% 	c #030207",
"& 	c #000005",
"* 	c #06050A",
"= 	c #010005",
"- 	c #000004",
"; 	c #050409",
"> 	c #0B0B0D",
", 	c #010101",
"' 	c #010103",
") 	c #050505",
"! 	c #080904",
"~ 	c #030400",
"{ 	c #010200",
"] 	c #0A0A0A",
"^ 	c #08070C",
"/ 	c #4C4C4E",
"( 	c #8A8A8C",
"_ 	c #8B8B8D",
": 	c #8B8B8B",
"< 	c #8A8A8A",
"[ 	c #898989",
"} 	c #979799",
"| 	c #777779",
"1 	c #646466",
"2 	c #707070",
"3 	c #838383",
"4 	c #7D7D7D",
"5 	c #454545",
"6 	c #010100",
"7 	c #020300",
"8 	c #0D0E09",
"9 	c #040404",
"0 	c #020202",
"a 	c #030303",
"b 	c #070705",
"c 	c #0A090E",
"d 	c #2F2E33",
"e 	c #646368",
"f 	c #ABAAAF",
"g 	c #D5D5D7",
"h 	c #DDDDDF",
"i 	c #D7D7D9",
"j 	c #D6D6D8",
"k 	c #D4D4D4",
"l 	c #D2D2D2",
"m 	c #D1D1D1",
"n 	c #D0D0D0",
"o 	c #CFCFCF",
"p 	c #ADADAF",
"q 	c #A8A7AC",
"r 	c #AEADB2",
"s 	c #B6B6B8",
"t 	c #B4B4B6",
"u 	c #B1B1B3",
"v 	c #A3A3A5",
"w 	c #474747",
"x 	c #131311",
"y 	c #0A0A08",
"z 	c #030301",
"A 	c #27262C",
"B 	c #818085",
"C 	c #E0DFE4",
"D 	c #DDDCE1",
"E 	c #CDCDCF",
"F 	c #D3D3D3",
"G 	c #CECECE",
"H 	c #CFCFD1",
"I 	c #B8B7BC",
"J 	c #A9A8AD",
"K 	c #A2A1A6",
"L 	c #A09FA4",
"M 	c #9D9CA1",
"N 	c #A8A8AA",
"O 	c #B7B7B9",
"P 	c #B9B9BB",
"Q 	c #828282",
"R 	c #3C3C3C",
"S 	c #121210",
"T 	c #060606",
"U 	c #090909",
"V 	c #222224",
"W 	c #6B6A6F",
"X 	c #D2D1D7",
"Y 	c #E1E0E5",
"Z 	c #CBCACF",
"` 	c #D2D1D6",
" .	c #D3D3D5",
"..	c #D2D2D4",
"+.	c #D1D1D3",
"@.	c #CDCDCD",
"#.	c #CCCBD0",
"$.	c #B0AFB5",
"%.	c #A09FA5",
"&.	c #9E9DA3",
"*.	c #9B9AA0",
"=.	c #9F9EA3",
"-.	c #9A999E",
";.	c #B9B8BD",
">.	c #9D9D9F",
",.	c #A7A7A9",
"'.	c #A7A7A7",
").	c #3C3C3E",
"!.	c #080808",
"~.	c #070707",
"{.	c #111111",
"].	c #58585A",
"^.	c #969698",
"/.	c #B2B1B6",
"(.	c #ADACB2",
"_.	c #97969B",
":.	c #E3E2E7",
"<.	c #C5C5C7",
"[.	c #D9D9DB",
"}.	c #CECED0",
"|.	c #B5B4BA",
"1.	c #A6A5AB",
"2.	c #A5A4AA",
"3.	c #A8A7AD",
"4.	c #9C9BA1",
"5.	c #96959B",
"6.	c #9F9EA4",
"7.	c #A7A6AB",
"8.	c #9E9DA2",
"9.	c #919095",
"0.	c #EAEAEC",
"a.	c #EEEEF0",
"b.	c #7F7F81",
"c.	c #353537",
"d.	c #020204",
"e.	c #050507",
"f.	c #131315",
"g.	c #5E5E60",
"h.	c #D0CFD4",
"i.	c #B4B3B9",
"j.	c #A6A5AA",
"k.	c #ECEBF0",
"l.	c #CECDD2",
"m.	c #D3D2D7",
"n.	c #DADADC",
"o.	c #BFBFC1",
"p.	c #D0D0D2",
"q.	c #BEBDC3",
"r.	c #9C9BA3",
"s.	c #8F8E96",
"t.	c #9A99A1",
"u.	c #9F9EA6",
"v.	c #9D9CA2",
"w.	c #9A999F",
"x.	c #949399",
"y.	c #D5D4D9",
"z.	c #D6D5DA",
"A.	c #E4E3E8",
"B.	c #515153",
"C.	c #030305",
"D.	c #0B0A0F",
"E.	c #4F4E53",
"F.	c #A4A3A8",
"G.	c #BDBCC1",
"H.	c #A4A3A9",
"I.	c #BDBCC2",
"J.	c #CDCCD1",
"K.	c #CBCBCD",
"L.	c #CBCBCB",
"M.	c #CACACC",
"N.	c #B3B2BA",
"O.	c #9997A2",
"P.	c #95949C",
"Q.	c #A2A1A9",
"R.	c #98979F",
"S.	c #C7C6CB",
"T.	c #E8E7EC",
"U.	c #DAD9DE",
"V.	c #373739",
"W.	c #141414",
"X.	c #0C0C0C",
"Y.	c #040406",
"Z.	c #09080D",
"`.	c #444349",
" +	c #C0BFC5",
".+	c #B1B0B6",
"++	c #B2B1B7",
"@+	c #A7A6AC",
"#+	c #AAA9AE",
"$+	c #D9D8DD",
"%+	c #C8C8CA",
"&+	c #CCCCCE",
"*+	c #CCCCCC",
"=+	c #C9C9C9",
"-+	c #A8A7AF",
";+	c #9F9DA8",
">+	c #96959D",
",+	c #94939B",
"'+	c #9998A0",
")+	c #9D9CA4",
"!+	c #A1A0A6",
"~+	c #EFEEF3",
"{+	c #C4C3C8",
"]+	c #DBDADF",
"^+	c #D1D0D5",
"/+	c #E5E5E7",
"(+	c #4B4B4B",
"_+	c #020200",
":+	c #0E0E0E",
"<+	c #07060B",
"[+	c #403F45",
"}+	c #A3A2A8",
"|+	c #B7B6BC",
"1+	c #A1A0A8",
"2+	c #A6A5AD",
"3+	c #C5C4C9",
"4+	c #D5D5D5",
"5+	c #D9D9D9",
"6+	c #A8A8A8",
"7+	c #8C8C8E",
"8+	c #6C6B71",
"9+	c #706F77",
"0+	c #78777F",
"a+	c #818088",
"b+	c #8B8A92",
"c+	c #939298",
"d+	c #97969C",
"e+	c #99989E",
"f+	c #929197",
"g+	c #CFCED3",
"h+	c #D7D6DB",
"i+	c #C0BFC4",
"j+	c #DFDEE3",
"k+	c #E2E2E2",
"l+	c #090907",
"m+	c #29282E",
"n+	c #C4C3CB",
"o+	c #B0AFB7",
"p+	c #9C9AA5",
"q+	c #A09EA9",
"r+	c #B4B3B8",
"s+	c #B3B3B5",
"t+	c #B3B3B3",
"u+	c #0D0D0D",
"v+	c #09090B",
"w+	c #010006",
"x+	c #2B2A30",
"y+	c #5D5C62",
"z+	c #959499",
"A+	c #F7F6FB",
"B+	c #DCDBE0",
"C+	c #E2E2E4",
"D+	c #BEBEC0",
"E+	c #C2C2C2",
"F+	c #D7D7D7",
"G+	c #444444",
"H+	c #0D0D0B",
"I+	c #08080A",
"J+	c #121117",
"K+	c #7D7C82",
"L+	c #9D9BA6",
"M+	c #A2A0AB",
"N+	c #9E9CA7",
"O+	c #A09FA7",
"P+	c #A1A0A5",
"Q+	c #BFBEC3",
"R+	c #919193",
"S+	c #68686A",
"T+	c #474749",
"U+	c #1A1A1C",
"V+	c #06050B",
"W+	c #0D0C12",
"X+	c #0C0B11",
"Y+	c #040309",
"Z+	c #56555A",
"`+	c #C6C6C8",
" @	c #D8D8D8",
".@	c #DDDDDD",
"+@	c #C6C6C6",
"@@	c #D6D6D6",
"#@	c #525252",
"$@	c #161616",
"%@	c #6E6D73",
"&@	c #ADACB4",
"*@	c #9D9BA8",
"=@	c #9795A2",
"-@	c #93919E",
";@	c #A4A2AD",
">@	c #929199",
",@	c #939297",
"'@	c #616065",
")@	c #4E4D52",
"!@	c #202022",
"~@	c #0F0F11",
"{@	c #060608",
"]@	c #0E0E10",
"^@	c #C5C5C3",
"/@	c #BFBFBD",
"(@	c #DEDEDC",
"_@	c #C8C8C6",
":@	c #C5C5C5",
"<@	c #C8C8C8",
"[@	c #E5E5E5",
"}@	c #B4B4B4",
"|@	c #F1F1F1",
"1@	c #F7F7F7",
"2@	c #BABABA",
"3@	c #434343",
"4@	c #0F0F0F",
"5@	c #5E5D62",
"6@	c #908F97",
"7@	c #A7A5B0",
"8@	c #9694A1",
"9@	c #9896A3",
"0@	c #A19FAC",
"a@	c #918F9A",
"b@	c #9B9AA2",
"c@	c #88878C",
"d@	c #58575C",
"e@	c #0D0C11",
"f@	c #020106",
"g@	c #0C0C0A",
"h@	c #A6A6A4",
"i@	c #CFCFCD",
"j@	c #C9C9C7",
"k@	c #D4D4D2",
"l@	c #C1C1C1",
"m@	c #DFDFDF",
"n@	c #9B9B9B",
"o@	c #353439",
"p@	c #95949A",
"q@	c #8D8C94",
"r@	c #918F9C",
"s@	c #A09EAB",
"t@	c #A8A6B4",
"u@	c #8C8A97",
"v@	c #605F65",
"w@	c #242328",
"x@	c #0C0C0E",
"y@	c #0F0F0D",
"z@	c #070803",
"A@	c #B5B6B1",
"B@	c #C0C1BC",
"C@	c #C7C8C3",
"D@	c #D2D2D0",
"E@	c #B5B5B5",
"F@	c #A9A9A9",
"G@	c #A5A5A5",
"H@	c #BFBFBF",
"I@	c #121212",
"J@	c #99989D",
"K@	c #A19FAA",
"L@	c #9896A1",
"M@	c #908E99",
"N@	c #A5A3AE",
"O@	c #201F24",
"P@	c #040308",
"Q@	c #1D1D1B",
"R@	c #BEBFBA",
"S@	c #CCCCCA",
"T@	c #B0B0B2",
"U@	c #AEAEB0",
"V@	c #9F9FA1",
"W@	c #1C1C1E",
"X@	c #6B6B6D",
"Y@	c #DEDEE0",
"Z@	c #C3C3C5",
"`@	c #7C7B80",
" #	c #8F8E93",
".#	c #323136",
"+#	c #555553",
"@#	c #AEADB5",
"##	c #A9A8B0",
"$#	c #A5A4AC",
"%#	c #74737B",
"&#	c #151419",
"*#	c #101012",
"=#	c #1E1E20",
"-#	c #AFAFB1",
";#	c #8F8F91",
">#	c #868688",
",#	c #939395",
"'#	c #636365",
")#	c #212123",
"!#	c #636363",
"~#	c #B2B2B4",
"{#	c #AAA9AF",
"]#	c #ADABB6",
"^#	c #9E9CA9",
"/#	c #A3A1AC",
"(#	c #090810",
"_#	c #0A0A0C",
":#	c #99999B",
"<#	c #E4E4E6",
"[#	c #858587",
"}#	c #828284",
"|#	c #AFAEB3",
"1#	c #A6A4AF",
"2#	c #9C9AA7",
"3#	c #9997A4",
"4#	c #BFBDC8",
"5#	c #1C1B23",
"6#	c #030208",
"7#	c #5F5F61",
"8#	c #D4D4D6",
"9#	c #D8D8DA",
"0#	c #9B9B9D",
"a#	c #070709",
"b#	c #3E3E40",
"c#	c #ACABB0",
"d#	c #A3A2AA",
"e#	c #9B99A4",
"f#	c #9F9DAA",
"g#	c #B0AEB9",
"h#	c #424149",
"i#	c #0A090F",
"j#	c #18181A",
"k#	c #DCDCDE",
"l#	c #C0C0C2",
"m#	c #C9C9CB",
"n#	c #959597",
"o#	c #96959A",
"p#	c #B9B8BE",
"q#	c #9A98A3",
"r#	c #797880",
"s#	c #606062",
"t#	c #69686D",
"u#	c #9E9DA5",
"v#	c #95939E",
"w#	c #DFDFE1",
"x#	c #3F3F41",
"y#	c #403F44",
"z#	c #97969E",
"A#	c #96949F",
"B#	c #9795A0",
"C#	c #3B3A3F",
"D#	c #DBDBDD",
"E#	c #C1C1C3",
"F#	c #2A2A2C",
"G#	c #2C2B30",
"H#	c #747476",
"I#	c #C4C4C6",
"J#	c #8A898E",
"K#	c #88878D",
"L#	c #8B8A90",
"M#	c #8D8D8F",
"N#	c #616163",
"O#	c #4A4A4C",
"P#	c #8B8A8F",
"Q#	c #8C8B91",
"R#	c #707072",
"S#	c #B5B5B7",
"T#	c #C7C7C9",
"U#	c #575759",
"V#	c #858489",
"W#	c #8E8D93",
"X#	c #BEBDC5",
"Y#	c #D6D5DB",
"Z#	c #CBCAD0",
"`#	c #A5A5A7",
" $	c #88888A",
".$	c #7D7D7F",
"+$	c #DAD9DF",
"@$	c #D5D4DA",
"#$	c #DEDDE5",
"$$	c #E4E3EB",
"%$	c #DCDBE1",
"&$	c #AFAFAF",
"*$	c #050601",
"=$	c #A6A6A8",
"-$	c #9A9A9C",
";$	c #A4A4A6",
">$	c #A1A1A3",
",$	c #4D4D4F",
"'$	c #EBEAEF",
")$	c #DDDCE2",
"!$	c #D0CFD5",
"~$	c #CECDD3",
"{$	c #A2A2A2",
"]$	c #040500",
"^$	c #333335",
"/$	c #F9F9FB",
"($	c #ACACAE",
"_$	c #A0A0A2",
":$	c #49494B",
"<$	c #AAAAAC",
"[$	c #DBDAE0",
"}$	c #D1D0D6",
"|$	c #303032",
"1$	c #ABABAD",
"2$	c #5A5A5C",
"3$	c #ACACAC",
"4$	c #E9E9EB",
"5$	c #CDCCD2",
"6$	c #C4C3C9",
"7$	c #C9C8CD",
"8$	c #323234",
"9$	c #BDBDBF",
"0$	c #B0AFB4",
"a$	c #9C9BA0",
"b$	c #CFCED4",
"c$	c #D8D7DD",
"d$	c #ADADAD",
"e$	c #A3A2A7",
"f$	c #B8B8BA",
"g$	c #ABABAB",
"h$	c #060702",
"i$	c #ADACB1",
"j$	c #A2A1A7",
"k$	c #08070D",
"l$	c #B2B2B2",
"m$	c #CAC9CE",
"n$	c #A4A4A4",
"o$	c #242329",
"p$	c #D4D3D9",
"q$	c #CCCBD1",
"r$	c #969696",
"s$	c #C0C0C0",
"t$	c #A9A9AB",
"u$	c #C9C8CE",
"v$	c #98979D",
"w$	c #A9A8AE",
"x$	c #67666C",
"y$	c #A2A2A4",
"z$	c #C8C7CC",
"A$	c #C5C4CA",
"B$	c #C7C6CE",
"C$	c #C9C8D0",
"D$	c #D4D3D8",
"E$	c #929294",
"F$	c #88878F",
"G$	c #8E8D95",
"H$	c #919098",
"I$	c #7E7D82",
"J$	c #C6C5CA",
"K$	c #C2C1C7",
"L$	c #C8C7CF",
"M$	c #CAC9D1",
"N$	c #CAC9CF",
"O$	c #A0A0A0",
"P$	c #9C9C9E",
"Q$	c #929196",
"R$	c #949398",
"S$	c #919096",
"T$	c #89888D",
"U$	c #B1B0B5",
"V$	c #C1C0C6",
"W$	c #B4B3BB",
"X$	c #BDBCC4",
"Y$	c #BBBAC0",
"Z$	c #B3B2B7",
"`$	c #1C1C1C",
" %	c #B1B1AF",
".%	c #BAB9BE",
"+%	c #C6C5CB",
"@%	c #0D0D0F",
"#%	c #807F84",
"$%	c #AAA9B1",
"%%	c #ABAAB2",
"&%	c #B3B2B8",
"*%	c #101010",
"=%	c #C4C4C2",
"-%	c #E7E6EB",
";%	c #717075",
">%	c #86858B",
",%	c #ACABB1",
"'%	c #B5B4BC",
")%	c #B2B1B9",
"!%	c #B7B5C0",
"~%	c #AAA8B3",
"{%	c #AFAEB6",
"]%	c #AFAEB4",
"^%	c #747474",
"/%	c #CECECC",
"(%	c #E1E1E3",
"_%	c #D8D7DC",
":%	c #D7D6DC",
"<%	c #77767B",
"[%	c #8F8E94",
"}%	c #A4A3AB",
"|%	c #A9A7B2",
"1%	c #D8D9D4",
"2%	c #E5E5E3",
"3%	c #BCBCBE",
"4%	c #7A797F",
"5%	c #6F6F6F",
"6%	c #0A0B06",
"7%	c #DCDDD8",
"8%	c #E6E6E4",
"9%	c #BCBCBC",
"0%	c #75747A",
"a%	c #6C6C6E",
"b%	c #11120D",
"c%	c #DDDED9",
"d%	c #E2E2E0",
"e%	c #BBBBBB",
"f%	c #717076",
"g%	c #84838B",
"h%	c #A2A0AD",
"i%	c #21221D",
"j%	c #DFE0DB",
"k%	c #DCDCDA",
"l%	c #CBCBC9",
"m%	c #7E7D85",
"n%	c #9A98A5",
"o%	c #98979C",
"p%	c #33342F",
"q%	c #E0E1DC",
"r%	c #C6C6C4",
"s%	c #706F75",
"t%	c #3E3E3C",
"u%	c #DFDFDD",
"v%	c #6D6C72",
"w%	c #66656A",
"x%	c #59585D",
"y%	c #C3C2C7",
"z%	c #646369",
"A%	c #747379",
"B%	c #6A696F",
"C%	c #C8C7CD",
"D%	c #C2C1C6",
"E%	c #6F6E74",
"F%	c #87868C",
"G%	c #76757D",
"H%	c #BCBBC3",
"I%	c #AEADB3",
"J%	c #0F0E13",
"K%	c #E5E4E9",
"L%	c #8E8D92",
"M%	c #94929D",
"N%	c #B9B8C0",
"O%	c #908F94",
"P%	c #E2E1E6",
"Q%	c #DEDDE2",
"R%	c #2B2B2D",
"S%	c #A9A7B4",
"T%	c #B2B0BB",
"U%	c #ABA9B4",
"V%	c #E3E3E5",
"W%	c #79797B",
"X%	c #AEACB9",
"Y%	c #A4A2AF",
"Z%	c #908F95",
"`%	c #949496",
" &	c #B7B5C2",
".&	c #A3A1AE",
"+&	c #959595",
"@&	c #CACACA",
"#&	c #E0E0E0",
"$&	c #535353",
"%&	c #8B8996",
"&&	c #8C8B93",
"*&	c #C3C3C3",
"=&	c #5D5D5D",
"-&	c #93919C",
";&	c #A7A6AE",
">&	c #818086",
",&	c #8E8E90",
"'&	c #4F4F51",
")&	c #BEBCC7",
"!&	c #878590",
"~&	c #8C8A95",
"{&	c #8D8C92",
"]&	c #87868B",
"^&	c #C2C2C4",
"/&	c #C6C5CD",
"(&	c #7D7C81",
"_&	c #B5B4B9",
":&	c #BEBDC2",
"<&	c #404042",
"[&	c #D5D4DC",
"}&	c #C7C6CC",
"|&	c #B0B0B0",
"1&	c #636267",
"2&	c #525156",
"3&	c #DFDEE4",
"4&	c #E0E0E2",
"5&	c #C1C1BF",
"6&	c #B1B0B8",
"7&	c #ACABB3",
"8&	c #C0C0BE",
"9&	c #BBBBB9",
"0&	c #B7B7B5",
"a&	c #5F5E66",
"b&	c #D6D6D4",
"c&	c #CCCDC8",
"d&	c #BCBDB8",
"e&	c #1A1B16",
"f&	c #0D0C14",
"g&	c #5E5C67",
"h&	c #C7C7C5",
"i&	c #C6C7C2",
"j&	c #B1B2AD",
"k&	c #22231D",
"l&	c #070802",
"m&	c #050600",
"n&	c #72707D",
"o&	c #8D8B98",
"p&	c #908E9B",
"q&	c #92909D",
"r&	c #888693",
"s&	c #7D7B88",
"t&	c #8F8D9A",
"    . . . . . . + . . @ # . $ # % & * = - ; >       . . , , . .   ' ) . . , @ . # . $ ! ~ $ { ~ , . . . . . , ] . . . . . . . . ",
"    . . . . . . . . . . . . $ . - & - - ^ - ' / ( _ : : : < [ [ } | 1 2 3 4 5 6 . . 6 $ 7 8 $ # 9 0 0 9 ) , . . . . . . . . . . ",
". . . . . . . . a , . . . b + . - & c d e f g h i j k l m n o o p q r s t u v : w . x y . # . z . . . . , a . . . . . . . . . . ",
". . . . . . . . 0 . . . z z . . - A B C C D h E i g F n o G o H I J K L M N O P u Q R . . S . . . . . . . , a . . . . . . . . . ",
". . . . . . . . . . ) T . . U V W X Y D Z ` H  ...+.o @.@.@.G H #.$.%.&.*.M =.-.;.>.,.'.).. !.. , T ~.0 . . . . . . . . . . . . ",
". . . . . . . . . 0 , . . {.].^./.(._.Y :.#.<.[.}.}.G @.G G o H |.1.2.3.4.5.6.7.8.9.9.0.a.b.c.. . . . ) 9 . . , . . . . . . . . ",
". . . . . .     d.e.    f.g.J h.i.$.j.k.l.m.n.o.p.+.m l l l m +.q.r.s.t.u.&.v.w.x._.r y.z.A.l.B.] . . , ) . . 9 . . . . . . . . ",
". . . . . .       C.  D.E.F.G.H.3.I.9.J.m.m.K.g E }.o o o @.L.M.N.O.P.Q.u.R.w.v.H.v.S.T.U.U.Y j V.W.. . 9 . . a . . . . . . . . ",
"y . . X., . Y.  - = Z.`.6. +.+.+++@+F.#+$+#.%+E %+&+*+=+=+G n E -+;+>+,+'+)+*.5.!+*.~+y.{+]+^+/+i (+. . U ) . . . !.. . 9 ) . . ",
"_+. !.. a :+  ' <+- [+}+|+1+u.2+!+v._.8.3+#.M.E [.+.G 4+5+=+6+7+8+9+0+a+b+c+d+e+f+g+h+U.h+i+j+H k+@.(+~.. . . 9 . 0 . . . . , . ",
"6 . l+. 0 .   > - m+b+n+o+p+q+t.c+}+=.F.r+#.&+p.s+P t+: w u+. v+w+& & & w+x+y+B z+A+B+<. .C+D+5+E+l F+G+, . ~.. . . 9 0 . . 0 0 ",
"# . . H+. . I+- J+K+N.Q.L+M+N+q+O+1.z+P+f Q+R+S+T+U+. . !.!..   - V+W+X+Y+- - - Z+`+<. @`+F F m m .@+@@@#@. . . {.. ) 0 . . ) , ",
"6 y . . . $@  = %@!+&@L+*@=@-@;@>@@+P+,@'@)@!@  C.  . . . . . ~@= - - - -   d.{@]@!.t+^@F /@(@_@:@<@[@}@|@1@@.2@3@. 0 . . . T . ",
". z 6 . , 4@- 5@&.6@N+7@8@9@0@a@b@*.c@d@e@-         a U ) . . . C.f@= C.{@e.' . . g@6 h@i@j@k@j@l@m@+@k+'.3 n@L.3 a . . a . T . ",
"$ $ _+l+~.. o@J p@q@O.p+r@s@t@u@&@v@w@<+f@% x@' d.d., , . . . . '     . a 9 a 6 y@. . z@A@B@C@D@m@t+@.E@6+F@}@G@H@I@, . ) . ) . ",
"6 y . 0 . I+<.J@d+}+>+>@K@L@M@N@%@O@-   P@  {@      . . . T a . Y.C.. . . . 6 z . . # $ Q@R@_@S@:@}.T@,.U@U@L V@C+W@C.  e.. a . ",
"0 . a   C.X@Y@Z@`@ #J@ #M -.'@.#      .   . . . . . . . . . . . . . . . . . . . . , . . . +#*+F Q+r |+2.@#u.;@##$#%#w+& &#  . T ",
"  >   *#=#p...[.%+-#;#>#,#'#)#  . . . . . . . . . . . . . . . . . . . . . . . . , . . T . u+!#~#r+{#o+Q.]#^#^#*@/#M+(#& - ' a . ",
"    _#e.:#n.<#j  . .Z@~#[#_#  d.. . . . . . . . . . . . . . . . . . . . . . . . . . . a ) . :+}#|#(.-+b@1#p+2#3#;+4#5#6#- C.~.. ",
"  e.  7#g ..8#..g 9#E }.0#a#  v+. . . . . . . . . . . . . . . . . . . . . . . . . . a . ) . . b#c#|+d#,+L+e#f#^#L+g#h#i#P@  , . ",
"  *#j#M.j k#l#j i 8#m#p.n#*#    . . . . . . . . . . . . . . . . . . . . . . . . 9 . !.. . X..   o#p#Q.>+e#q#N+L+L+L@r#Y+e@  , , ",
"'   ( 9#k#i %+..%+8#Y@..s#    Y.. . . . . . . . . . . . . . . . . . . . . . . . a . ) 9 . a 9   t#(.u.u#N+O.L@v#N+,+H.c ' . ~.. ",
"  _#l#w#K.9#M.E 8#m#..%+x#e.  d.. . . . . . . . . . . . . . . . . . . . . . . . . . . U , . U C.y#=.w.!+r.z#A#B#b@t.2.C#  . T . ",
"  !@E D#[.o.n.%+g E#j E F#d.  e.. . . . . . . . . . . . . . . . . . . . . . . . 0 ] . . T . a . G#_.x.v.z#,+q#q+z#w.f+H#  . . # ",
"  T+E# .8#I#E H j E#p.P x@  C.  . . . . . . . . . . . . . . . . . . . . . . . . . . . . . . . . D.J#f K#R.b@s.>+r.L#p@M#  !._+. ",
"]@N#g %+..`+`+&+%+<.i O#    _#  . . . . . . . . . . . . . . . . . . . . . . . . . . . . . . . .   W z+P#d+>@q@t.z#Q#J@7+. 6 7 ~ ",
"  R#}.S#m#M.<.E T#+.`+    Y.    . . . . . . . . . . . . . . . . . . . . . . . . . . . . . . . .   U#`@V#L#W#Q.X#Y#Z#g+U@9 . $ $ ",
"  `#T#D+<.H m#m#E#<. $  {@>   v+. . . . . . . . . . . . . . . . . . . . . . . . . . . . . . . . I+.$;.D +$@$#$$$%$m.y.&$a . { *$",
"_# .=$u -$;$>$-$U@,.,$C.v+C.  _#. . . . . . . . . . . . . . . . . . . . . . . . . . . . . . . .   7+`+'$)$%$)$!$~$3+S.{$. . 7 ]$",
"^$/$($o.v u S#~#p _$:$  {@  v+  . . . . . . . . . . . . . . . . . . . . . . . . . . . . . . . . ~@<$K.w#Z @$[$}$)$m...F@. { $ $ ",
"|$9#p s+1$O u s U@=$2$  d.  Y.  . . . . . . . . . . . . . . . . . . . . . . . . . . . . . . . . . 3$&+4$$+z.5$6$J.7$E '.. ~ *$~ ",
"8$9$9$($s+0$z+a$8.M Z+    x@  _#. . . . . . . . . . . . . . . . . . . . . . . . . . . . . . . . . 3$9$k#m.^+b$c$h.h.j d$. $ $ $ ",
"W@g e$/.=.4.b@1+r.t.}+- = ; a#  . . . . . . . . . . . . . . . . . . . . . . . . . . . . . . . . . }@f$Y@7$` Z#X Z 3+i g$. $ 7 h$",
"I+H q i$w.v.r.q#p+t.j$k$- -     . . . . . . . . . . . . . . . . . . . . . . . . . . . . . . . . . l$~#i m$m.5$}$7$#.9#n$] ~ $ $ ",
"~. ./.q 5.6.u.'+b@)+1.o$- f@Y.a . . . . . . . . . . . . . . . . . . . . . . . . . . . . . . . . C.U@($p.#.p$~$b$q$^+H r$T $ $ $ ",
"0 s$v z+Q#5.R.'+,+'+H.[+-   . . . . . . . . . . . . . . . . . . . . . . . . . . . . . . . . . .   ,.t$m$Z#5$Z#Z#u$g+l.3$. . *$$ ",
"0 3$:#,@v$w.>+u#'+u.w$x$* d.. . . . . . . . . . . . . . . . . . . . . . . . . . . . . . . . . .   y$#+z$Z#A$B$C$6$m$D$@@. . ! $ ",
"a G@0#E$M p@F$G$H$5.6.I$a#a#, T . . . . . . . . . . . . . . . . . . . . . . . . . . . . . . . . d.v c#J$~$K$L$M$N$A$J$ .. . z@$ ",
". O$P$[#Q$R$L#S$d+5.5.T$    . . . . . . . . . . . . . . . . . . . . . . . . . . . . . . . . . .   _.a$U$V$W$X#X$n+Y$Z$P `$. *${ ",
"#  %l$;#e$.%K$q$!$+%;.r @%U . _+. . . . . . . . . . . . . . . . . . . . . . . . . . . . . . . . - B #%c+$%u.##2+%%$.&%f$g.*%# . ",
". =% @n.-%]++$Y#X b$Z G.  . _+. . . . . . . . . . . . . . . . . . . . . . . . . . . . . . . . . = ;%>%,%'%)%!%~%{%++]%T@t$^%_+. ",
". /%m@5+(%_%[$:%X g+m$9$. . _+. . . . . . . . . . . . . . . . . . . . . . . . . . . . . . . .   f@<%[%]%{%}%|%;+O+}%j$j.y$2 , . ",
"h$1%2%k j .._%y.^+l.m$3%. . _+. . . . . . . . . . . . . . . . . . . . . . . . . . . . . . . .   - 4%,+o+7@B#N+L@O.)+4.K V@5%0 , ",
"6%7%8%i@}.&+D$h.h.J.m#9%. . 7 $ . . . . . . . . . . . . . . . . . . . . . . . . . . . . . . .   - 0%G$$%K@v#N+q#p+N+r.%.a$a%. . ",
"b%c%d%S@}.K.^+J.g+#.%+e%. . 7 $ . . . . . . . . . . . . . . . . . . . . . . . . . . . . . . .   - f%g%O+N+B#h%*@q#p+R.*._.S+. . ",
"i%j%k%l%F E ^+J.l.Z %+e%. . 7 $ . . . . . . . . . . . . . . . . . . . . . . . . . . . . . . .   % f%m%t.e#A#0@n%O.e#z#*.o%X@, 0 ",
"p%q%D@r%k K.J.#.J.Z T#e%. . 7 $ . . . . . . . . . . . . . . . . . . . . . . . . . . . . . . .   f@s%m%'+L@-@*@8@O.e#z#w.o%a%a ) ",
"t%u%=+s$+.T#z$7$J.m$T#2@. . z . . . . . . . . . . . . . . . . . . . . . . . . . . . . . . . .   - v%m%t.B#M@q#v#A#z#>@p@f+w%    ",
"x%l.m$z$y%Z l.J$#.g+m#p v+. . 9 . . . . . . . . . . . . . . . . . . . . . . . . . . . . . . .   f@z%f%L#R.P.6@>+z#f+w.*.p@A%- % ",
"B%5$+%A$K$A$C%y%D%i+f$y$a#  , . . . . . . . . . . . . . . . . . . . . . . . . . . . . . . . .   - E%F%v.!+*.p@e+S$d+p@e+j$s%& - ",
"G%H%o+o+o+(.I%I%Z$i$F.R$Y.' d.  . . . . . . . . . . . . . . . . . . . . . . . . . . . . . . .   J%o%D%$+U._%z._%_%K%U._%D L%% = ",
"M%N%$%$%{%2+2+{#1.P+-.L%= ' C.  . . . . . . . . . . . . . . . . . . . . . . . . . . . . . . . .   O%3+D j+:.P%P%_%Y ]+]+Q%f )@R%",
"S%T%N@K@U%u.u.}%u.v.w.W#& - % ' . . . . . . . . . . . . . . . . . . . . . . . . . . . . . . . . C.0#}.C+(%V%w#D#Y@j i 8#H i I#W%",
"X%Y%L+M%M+A#R.t.r.)+4.Z%& & f@f@  . . . . . . . . . . . . . . . . . . . . . . . . . . . . . . .   `%`+[.j  .}.&+j E 8#}.3%}.j s#",
" &Y%.&8@1#L+;+;+b@r.t.G$& & w+-   . . . . . . . . . . . . . . . . . . . . . . . . . . . . . . . , +&@&#&5+m o k +@@&l k *+o k $&",
"X%9@2#%&L+A#O.A#b@'+>+&&& & w+-   . . . . . . . . . . . . . . . . . . . . . . . . . . . . . . . . +&*+k+4+:@*&G *+k <@+@G +@@.=&",
"7@B#A#L+B#-&'+b@6@;&L#>&W+& - *   . . . . . . . . . . . . . . . . . . . . . . . . . . . . . . . ' ,&E# .[.E#K.K.E#}.}.M.M.%+<.'&",
")&e#!&~&a@P.P.{&>+H.{&]&X+- -   . . . . . . . . . . . . . . . . . . . . . . . . . . . . . . . .   ^.T#^&^&9$E Z@`+M.I#D+E#l#9$,$",
"/&Q.q@6@z#&.v.Q$Z%,@c@7+<+  a#  . . . . . . . . . . . . . . . . . . . . . . . . . . . . . . . .   (&_&;.:&G.{+r+_&r+r q i$#+K <&",
"[&}&+%N$+%J$m$%+7$o.S#|&*#. v+. . . . . . . . . . . . . . . . . . . . . . . . . . . . . . . .   - 1&*._& +_&|.0$]%|#.+f .+q 6.2&",
"3&B+A.T.D n.4&#&C+k L.5&{.. U . . . . . . . . . . . . . . . . . . . . . . . . . . . . . . . .   X+z%u#]%&@2.%%&%%%w$6&3.7&}+Q.A%",
"Q% .....E o m =+L.8&9&0&H+$ l+6 . . . . . . . . . . . . . . . . . . . . . . . . . . . . . . .   & a&U%7&p+u.N@d#M+r.M+P.e#z#q+[%",
"i *+@&@&<@@.o ^@b&c&B@d&e&$ 7 $ . . . . . . . . . . . . . . . . . . . . . . . . . . . . . . .   f&g&h%M+=@;+n%M@^#-&2#a@*@O.0@u#",
"9%9%:@<@E+:@S@h&i&R@j&A@k&l&m&$ . . . . . . . . . . . . . . . . . . . . . . . . . . . . . . .   g&n&o&p&r@9@q&p&r&s&u@r&3#r@t&q@"};
