/* XPM */
static char *door_open_xpm[] = {
"64 64 22 1",
"A c #fefefe",
"B c #c4caca",
"C c #b1b6b6",
"D c #bdc4c3",
"E c #d0d5d4",
"F c #909898",
"G c #a7acab",
"H c #e5e7e7",
"I c #9ba3a2",
"J c #c5bbaf",
"K c #bac0be",
"L c #c7c0b1",
"M c #dce1e0",
"N c #868d8c",
"O c #98a09e",
"P c #7d8685",
"Q c #b0a89e",
"R c #666d6c",
"S c #717877",
"T c #7c7f80",
"U c #bcbfc0",
"V c #dae1df",
"AAAAAAAAAAAAAAAAAAAAAAAAAAAAAAAAAAAAAAAAAAAAAAAAAAAAAAAAAAAAAAAA",
"AEEEEEEEMAAAAAAAAAAAAAAAAAAAAAAAAAAAAAAAAAAAAAAAAAAAAAAAAAAAAAAA",
"EBBEEEEEEEEEEEEEEEEEEEEEEEEEHHAAAAAAAAAAAAAAAAAAAAAAAAAAAAAAAAAA",
"EKDBDDDDDDDDDBBBBBBBBBBEEEEEEEEEEEEEEEEEEEEEEEEEHHHHHAAAAAAAAAAA",
"ECCCBBBBBBBBBBBBBBBDDDBDDBBBDDDDBBDDBDBBBBBBBEEEEEEEEEEEEEEECAAA",
"ACCDBBBBBBBBBBBBBBBBBBBBBBBBBBBDDDDDDDDDDDDDDDBBDBBBDDDDDDBDCEAA",
"ACCBBBDBBBBBBBBBBBBBBBDBBBBBBBBBBBBBBBBBBBBBDBBBBBBBBBBBBBDBCAAA",
"ACCBEBBBBBBBBBBBBBBBBBNEEBBBBBBBBBBBBBBBBBBECBBBBBBBBBBBBBBDCAAA",
"ACCBBBBCCDDDBDBBDDDBDGFIBBBBBBBBBBBBBBBBBBBBKBBBBBBBBBBBBBBDCAAA",
"ACCBBBBIIFFFFFFFFFFFFFFFGGCCCCDDDBBBBBDDDBBCDBBBBBBBBBBBBBBDCAAA",
"ACCBBBBFGAAAAAAAAAAAAKCCCFFFFFFFFFFFFFFFFFFFGGCCCCDDDDDDBBBDCAAA",
"AFCBBBDIGAAAAAAAAAAAAAAAAAAAAAAAAAAAAAHHHHHGFFFFFFFFFFFCDBBDCAAA",
"AIFBBDDIGAAAAAAAAAAAAAAAAAAAAAAAAAAAAAAAAAAAAAAAAAAAAPFCDBBDCAAA",
"AHEECDDCGAAAAAAAAAAAAAAAAAAAAAAAAAAAAAAAAAAAAAAAAAAAAAFCBBBKCAAA",
"AHBBBBBCFAAAAAAAAAAAAAAAAAAAAAAAAAAAAAAAAAAAAAAAAAAAAAFCBBBCBAAA",
"AHBBBBDCFAAAAAAAAAAAAAAAAAAAAAAAAAAAAAAAAAAAAAAAAAAAAAFDBBBCEAAA",
"AHBBBBBCFAAAAAAAAAAAAAAAAAAAAAAAAAAAAAAAAAAAAAAAAAAAAAFDBBBCEAAA",
"AHBBBBBDFAAAAAAAAAAAAAAAAAAAAAAAAAAAAAAAAAAAAAAAAAAAAAFBBBCFEAAA",
"AABBBBBDFAAAAAAAAAAAAAAAAAAAAAAAAAAAAAAAAAAAAAAAAAAAAHFBBBDCEAAA",
"AABDBBBDFAAAAAAAAAAAAAAAAAAAAAAAAAAAAAAAAAAAAAAAAAAAAHFBBBBDHAAA",
"AABBBBBBFAAAAAAAAAAAAAAAAAAAAAAAAAAAAAAAAAAAAAAAAAAAAHFBBBBDAAAA",
"AABDDBBDFHAAAAAAAAAAAAAAAAAAAAAAAAAAAAAAAAAAAAAAAAAAAHIBBBBDAAAA",
"AADDDBBDFHAAAAAAAAAAAAAAAAAAAAAAAAAAAAAAAAAAAAAAAAAAAPIBBBDKAAAA",
"AABCDBBBFHAAAAAAAAAAAAAAAAAAAAAAAAAAAAAAAAAAAAAAAAAAANGDBBDKAAAA",
"AABCDBBBIHAAAAAAAAAAAAAAAAAAAAAAAAAAAAAAAAAAAAAAAAAAAFCBBCBCAAAA",
"AABCCBBBIOAAAAAAAAAAAAAAAAAAAAAAAAAAAAAAAAAAAAAAAAAAAFCBBCBCAAAA",
"AAHCCEBBGFAAAAAAAAAAAAAAAAAAAAAAAAAAAAAAAAAAAAAAAAAAAFCBBCKCAAAA",
"AAECCBBBCFAAAAAAAAAAAAAAAAAAAAAAAAAAAAAAAAAAAAAAAAAAAFCBBCCDAAAA",
"AAECDBBBCFAAAAAAAAAAAAAAAAAAAAAAAAAAAAAAAAAAAAAAAAAAAFDBDCCEAAAA",
"AAHCDBBBBFAAAAAAAAAAAAAAAAAAAAAAAAAAAAAAAAAAAAAAAAAAAFDBDCCEAAAA",
"AAACDBBBBFAAAAAAAAAAAAAAAAAAAAAAAAAAAAAAAAAAAAAAAAAAAFBBDCCAAAAA",
"AAACKBBEBFAAAAAAAAAAAAAAAAAAAAAAAAAAAAAAAAAAAAAAAAAACFFEBCCAAAAA",
"AAACDBBBBFAAAAAAAAAAAAAAAAAAAAAAAAAAAAAAAAAAAAAAAAAAFFIFCBCAAAAA",
"AAADDBBBBFAAAAAAAAAAAAAAAAAAAAAAAAAAAAAAAAAAAAAAAAAAIFEEBDCAAAAA",
"AAABBBBBBFAAAAAAAAAAAAAAAAAAAAAAAAAAAAAAAAAAAAAAAAAAIFBBCDCAAAAA",
"AAABBBBBBFCAAAAAAAAAAAAAAAAAAAAAAAAAAAAAAAAAAAAAAAAAGFBBCDCAAAAA",
"AAABBBBBDFCAAAAAAAAAAAAAAAAAAAAAAAAAAAAAAAAAAAAAAAAANIBBKDCAAAAA",
"AAAEBBBBDICAAAAAAAAAAAAAAAAAAAAAAAAAAAAAAAAAAAAAAAAAFCBBCDBAAAAA",
"AAAEBBBBDGCAAAAAAAAAAAAAAAAAAAAAAAAAAAAAAAAAAAAAAAAAFCBBCDHAAAAA",
"AAAHBBBBDGCAAAAAAAAAAAAAAAAAAAAAAAAAAAAAAAAAAAAAAAAAFCBBDDMAAAAA",
"AAAHGCBBKCCAAAAAAAAAAAAAAAAAAAAAAAAAAAAAAAAAAAAAAAAAFDBBDDHAAAAA",
"AAAABBBECCFAAAAAAAAAAAAAAAAAAAAAAAAAAAAAAAAAAAAAAAAAFBBBDDHAAAAA",
"AAAADBBBDCFAAAAAAAAAAAAAAAAAAAAAAAAAAAAAAAAAAAAAAAAAFBBBDDAAAAAA",
"AAAADBBBDCFAAAAAAAAAAAAAAAAAAAAAAAAAAAAAAAAAAAAAAAAAFBBBDDAAAAAA",
"AAAADBBBBCFAAAAAAAAAAAAAAAAAAAAAAAAAAAAAAAAAAAAAAAAAFDBBDBAAAAAA",
"AAAADBBBBDFAAAAAAAAAAAAAAAAAAAAAAAAAAAAAAAAAAAAAAAAIFDBBBBAAAAAA",
"AAAADBBBEDFEAAAAAAAAAAAAAAAAAAAAAAAAAAAAAAAAAAAAAAAIIBBBBDAAAAAA",
"AAAABBBEEBFEAAAAAAAAAAAAAAAAAAAAAAAAAAAAAAAAAAAAAAAIGBBBBBAAAAAA",
"AAAABBBBBBFMAAAAAAAAAAAAAAAAAAAAAAAAAAAAAAAAAAAAAAAGGBEBBBAAAAAA",
"AAAABBBBBBFMAAAAAAAAAAAAAAAAAAAAAAAAAAAAAAAAAAAAAAAGCBBBBBAAAAAA",
"AAAAEBBBBBIVAAAAAAAAAAAAAAAAAAAAAAAAAAAAAAAAAAAAAAAGCDBBBBAAAAAA",
"AAAAEBBBBDGMAAAAAAAAAAAAAAAAAAAAAAAAAAAAAAAAAAAAAAAGGGCBBEAAAAAA",
"AAAAEBBBBBCFAAAAAAAAAAAAAAAAAAAAAAAAAAAAAAAAAAAAAAAFCDBBBEAAAAAA",
"AAAAEBBBBBCFAAAAAAAAAAAAAAAAAAAAAAAAAAAAAAAAAAAAAAAFDDDBBAAAAAAA",
"AAAAADBBBBCOAAAAAAAAAAAAAAAAAAAAAAAAAAAAAAAAAAAAAAAFDDDBBAAAAAAA",
"AAAAABBBDBBCCBJCCCJLLJJLLJJJJJLLCJJLJJJCQQEHHHHEGCCDBDDDBAAAAAAA",
"AAAACCCDBBBBBBBBBBBBBBBBBBBBBBBBBBBBBBBBBBBBBBBBBBDCCCCCCCCCAAAA",
"AAAKCCCCCCCCCUBBEEEEEEEEEEEEEEEEEEEEEEEEEEEEEEBBBBBBBCCCCCKDDCEA",
"AABCCCCCCCBBBEEEEBBBBBBBBBBBBBBBBBEEEEEEEEEEEEEEEEEEBBBCCCCCCCGA",
"AACCCCCCCCCCCCCCCCCCCCCCCCCCCCCCCCCCCCCCCCCCCCCCCCCCCCCCCCCCCCGA",
"AAGCCCCCCCCCCCCCCCCCCCCCCCCCCCCCCCCCCCCCCCCCCCCCCCGGGGGGGGGCGGIA",
"AACGCCCCCCCCCCCCCCCCCCCCCCCCCCCCCCCCCCGGCGCCCCGGGGGGGGGGGGCGGGIA",
"AAGGFFFFFOGGGGGGCGGGGGCGGGGGGGGGGGCCCGGIGGGCCCCGGGGGGGGGIGGGGGGA",
"AAAAAAAAAAAAAAAAAAAAACGCCCCGGGGGGGIGIFRSTNIGCCGCCEHAAAAAAAAAAAAA",
};