/* XPM */
static char *door_closed_xpm[] = {
"64 64 32 1",
"A c #5c6160",
"B c #979b99",
"C c #5c2211",
"D c #946d52",
"E c #714831",
"F c #823c1d",
"G c #88441f",
"H c #7a8784",
"I c #b9c0be",
"J c #dde1e1",
"K c #9e8c75",
"L c #73827d",
"M c #3d140b",
"N c #b1bec0",
"O c #9b582d",
"P c #c4caca",
"Q c #fdfdfe",
"R c #b1b6b6",
"S c #8e4a25",
"T c #bdc4c3",
"U c #cfd4d4",
"V c #8f9897",
"W c #a15a2f",
"X c #a7acab",
"Y c #6b2911",
"Z c #555b56",
"a c #753417",
"b c #6c7775",
"c c #a86436",
"d c #685748",
"e c #e7eaea",
"f c #745239",
"QQQQQQQQQQQQQQQQQQQQQQQQQQQQQQQQQQQQQQQQQQQQQQQQQQQQQQQQQQQQQQQQ",
"QUUUUUJeeeQQQQQQQQQQQQQQQQQQQQQQQQQQQQQQQQQQQQQQQQQQQQQQQQQQQQQQ",
"UPPUUUUUUUUUUUUUUUUUUUUUUUUeeeQQQQQQQQQQQQQQQQQQQQQQQQQQQQQQQQQQ",
"UTPTTTTTTTTTPPPPPPPUUUUUUUUUUUUUUUUUUUUUUUUUUUUUJeeQQQQQQQQQQQQQ",
"URRRPPPPPPPPPPPPPPPTTTPTTTTTTTTTPPTTPPPPPPPUUUUUUUUUUUUUUUUURQQQ",
"eRRTPPPPPPPPPPPPPPPPPPPPPPPPTTTTTTTTTTTTTTTTTTTTTTTTTPPPPPPTRUQQ",
"QRRPPPTPPPPPPPPPPPPPPPTUPPPPPPPPPPPPPPPPPPPPTPUPPPPPPPPPPTTPRJQQ",
"QRRPUPPPPPPPPPPPPPPPPPBUUPPPPPPPPPPPPPPPPPPPRPPPPPPPPPPPPPPTReQQ",
"QRRPPPPXIPTPPPPPPPPPTRBXPPPPPPPPPPPPPPPPPPPPRPPPPPPPPPPPPPPTRQQQ",
"QRRPPPPBBBVVVVVVVVVVBBXXRRTTPPPPTTPPPTTTTTPRTPPPPPPPPPPPPPPTRQQQ",
"QRRPPPPVVbbbbbbbbbbLHHVVVVVVVVVVVVVVVVVVVVBVRRRRTTTPTTTTPPPTRQQQ",
"QBRTPPTBVAZZAAZAAAAAAAAAAAAAbbbbbbbbbbHHBBVVVVVVVVVVVVVRTPPTRQQQ",
"QVBPPTTBVbZdffEfffddZdZZZZZZZZZZZZZZZZZZAAAAAbbbbbbbbHVRTPPTRQQQ",
"QUUPXRTXVAZdSSSSSSSSYaSSSSSSSSSSYSESEffdddZZZZZZZZAAZAVRPPPIRQQQ",
"QUPPPPPRVbZdSSSSSSSSaaSSSSSSSSSSYSSSSSSSGSSYaSEfffffdZVRPPPRTQQQ",
"QUPPPPTRVbZdSSOOWOOOOaWOOOOOOOOSaSSSSSSSSSSaaSSSSSSSfZVTPUPRPQQQ",
"QePPPPTRVbZdSWOOWOOOOYWOOOOOOOOOGSOOOOOOOOOFGOSSSSSSfZVTPPPRPQQQ",
"QePPPPPTVbAZOWOOWOOOOaOOOOOOOOOOSSOWWWWOOWOGSOOOWOOSfAVPPPRVUQQQ",
"QQPTPPPTVbZZOOOWOOWOOaOOOOOOOOOOSSOOOOOOOOOFSOOOOOOOdAVPPPIReQQQ",
"QQPTPPPTVbZZOOOWOOWOOFOOOOOOOOOOOFOOOOOOOOOFWOOOOOWOdAVPPPPTeQQQ",
"QQPPPPPPVbZZOOOOOOWOOSWOOOOOOOOOOaOOOOOOOOOFcOOOOOOOdbVPPPPTQQQQ",
"QQPPTPPPVHZZOOOOOOWOOSOOOOOOOOOOOaOOOOOOOOOGOOOOOOOOdbBPPPPTQQQQ",
"QQTTTPPTVHAAdOOWOOWOOOSOOOOOOOOOWaOWOOOOOWOFOOOOOOWOdHBPPPTIQQQQ",
"QQPRTPPPVHAZEOOWOOWOOOSOOOOOOOOOOGWOOOOOOWOFOOOOOOOOdBXTPPTIQQQQ",
"QQPRTPPPBBAAEOOWOOOOOOGOOOOOOOOOOScWOOOOOWOFOOOOOWODdVRPPRPRQQQQ",
"QQPRRPPPBVAAfOOWOOOOOOGOOOOOOOOOOScOOOOOOOOaOOOOWWOOdVRPPRPRQQQQ",
"QQURRPPPXVAAfOWOOOOOOOFcOOOOOOWOOOcccWccWWWSOWWOOOWOZVRPPRTRQQQQ",
"QQURRUPPRVbZfWcccWOOOOWOWOOOOOOOOOOOOOOOOOOOOOOOOOWGAVRPPRRTQQQQ",
"QQJRTPPPRVbdSOOOOOOOOOOOOOOOOOOOOWSGGGOWccDcOOWOOSFaAVTPTRRPQQQQ",
"QQeRTPPPTVbdCYaYYYYYYYCaYaaCSSSSSSFFaaYYYaYaaaYaYaaCAVTPTRRUQQQQ",
"QQQRTPPPPVbAZYFSOOSSaYMCYYYYYYYYCYYYYYYaaaYCYYYYYYYCAVPPTRRJQQQQ",
"QQQRIPPUPVbAZSOOOOOOOSCSOOOWOOOSYcOOOOOOWOOYOSEEESSdbVBUPRReQQQQ",
"QQQRTPPPPVbAZFOOOOOOOSCSOOOOOOOOYDOOOOOOWOOYWDRRKOWdbVVVTPRQQQQQ",
"QQQITPPPPVbAASOOSOOOOSCSOOOWOOOOYDOOOOOOWOOCDBNRBOWELVUUUTRQQQQQ",
"QQQTPPPPPVbAASOWOOOOOSCOOOOWOOOOYcOOOOOOOOOCKBRRBBOALVPURTRQQQQQ",
"QQQPPPPPPVHAZEOOOOOOOOMOOOOWOOOOYOOOOOOOOWOCBfAAaVDAHVPPRTRQQQQQ",
"QQQPPPPPPVHAZfOOOOOOOOCOOOOWOOOSaOOOOOOOWWEMBOWWOVDZBBPPITRQQQQQ",
"QQQPPPPPTBVAZfSOOOOOOOCOOOOWOOOSYOOOOOOOOOGCBBDDKXEZVRPPRTRQQQQQ",
"QQQUPPPPTXVAZfSOOOOOOOYWOOOWOOOSYOOOOOOOOOFCDKXBBASZVRPPRTUQQQQQ",
"QQQUPPPPTXVAAdOWOOOOOOYcOOOOWWOSYOOOOOOOOOCYcOOOOOOZVRPPITUQQQQQ",
"QQQURPPPTRVbAdOWOOOOOOaDOOOOWWOSaOOOOOOOOOCYcOOOOOOZVTPPTTUQQQQQ",
"QQQePUPPRRVbAdOWOOOOOOaDcOOOWWOFacOOOWOOOOCYWcOOOOOZVPPPTTJQQQQQ",
"QQQQTPPPTRVbAdSOOOOOOOYDOOOOWWOaacOOOOOOOOCYOOOOOOOAVPPPTTeQQQQQ",
"QQQQTPPPTRVbAdSOOOOOOOaDOOOOWWOaaOOOOOOOOOCaOOOOOOOAVPPPTTQQQQQQ",
"QQQQTPPPPRVbAZSOOOOOOWaDOOOOOOOCaSWOOOOOOOSaOOOWOWfAVTPPTPQQQQQQ",
"QQQQTPPPPTVbAZSOWOOOOOYDOOOOOOOaSSccOOOOWcccccccccAbVTPPTPQQQQQQ",
"QQQQTPPPUTVbAZOccccccccccccWOOOSSOOOOOOOOOOSOGaaaYEbBPPPPTQQQQQQ",
"QQQQPPPUUPVbAZSWOOOOOWOOWOOOOOOOOOWOSFaYYYaaYYYYaYELBPPPPPQQQQQQ",
"QQQQPPPPPPBHAdESOOOOOOSSOSFaaaaaCaYYYYYYYYCCYYaOWOdBXPUPPPQQQQQQ",
"QQQQPPPPPPVHAZCYYYYYYYCYYYYYYYYCCYYYaaGSSOSaOOOOWSdBRPPPPPQQQQQQ",
"QQQQUPPPPPBHAZAOOSOSSSCOOOOOWOOaCSSSOOWOOOSYOWOOSSZVRTPPPPQQQQQQ",
"QQQQUPPPPPXBAAfOWOWOOOCOOOOOWOOaYSSSSSSOSSFYSOOOSSZBXRTPPUQQQQQQ",
"QQQQJPPPPPXVAZESWOWOOSCSOWWWWOOaYSSSSSSSSSCYSSGSSSZBRTPPPJQQQQQQ",
"QQQQePPPPPRVbZEGOOOOSECESOOOOOOaCOSOSSSSGSaCOSSSSEdVTTTPPeQQQQQQ",
"QQQQePPPPPRBbZdESSSSSFCSSSSSSSSYCSSSSSSSSSYCFSSSSEAVTTTPPQQQQQQQ",
"QQQQQPPPTPPRXVbDDDDDDDdDDDDDDDDAdADDDDDAAdEEddddDKXNPTTTPeQQQQQQ",
"QQQeRRRTPPPPPPPPPPPPPPPPPPPPPPPPPPPPPPPPPPPPPPPPPPTRRRRRRRRReQQQ",
"QQQIRRRRRRRRRTPPUUUUUUUUUUUUUUUUUUUUUUUUUUUUUUPPPPPPPRRRRRTTTTUQ",
"QQPRRRRRRRPPPUUUUUUUUUPPPUUUUUUUUUUUUUUUUUUUUUUUUUUUPPPTRRRRRRXP",
"QQRRRRRRRRRRRRRRRRRRRRRRRRRRRRRRRRRRRRRRRRRRRRRRRRRRRRRRRRRRRRXJ",
"QQXRRRRRRRRRRRRRRRRRRRRRRRRRRRRRRRRRRRRRRRRRRRRRRRXXXRRRXXRRXXBQ",
"QQXXRRRRRRRRRRRRRRRRRRRRRRRRRRRRRRRRRRRRRXRRRRXXXXXXXXXXRXRXXXBQ",
"QQXXXBBXXXXXXXXXRRXXXXXXXXXXXXXXXXRRRXXXXXXXRRXXXXXXXXXXXXXXXXBQ",
"QQQQQQQQQQQQQQQQQQQJTXVVXXXXXXXXXXXXXVbbBVBBBVVXXRPUeQQQQQQQQQQQ",
};