/* XPM */
static char *door_xpm[] = {
"80 80 32 1",
"A c #ffffff",
"B c #fffffc",
"C c #fffeff",
"D c #fefefe",
"E c #fcfcfc",
"F c #f4f3f5",
"G c #dededf",
"H c #d5d5d7",
"I c #cfd1d3",
"J c #ceced0",
"K c #cbcacd",
"L c #c0c1c4",
"M c #beb0b0",
"N c #a9a9b1",
"O c #a09ea8",
"P c #bd866f",
"Q c #999ba5",
"R c #9797a1",
"S c #8a8a93",
"T c #d66f40",
"U c #d06c3c",
"V c #cf663a",
"W c #ca6438",
"X c #c66337",
"Y c #c55f33",
"Z c #c15f35",
"a c #a96449",
"b c #c15b31",
"c c #bd5a30",
"d c #bf532a",
"e c #b7522a",
"f c #9b492c",
"AAAAAAAAAAAAAAAAAAAAAAAAAAAAAAAAAAAAAAAAAAAAAAAAAAAAAAAAAAAAAAAAAAAAAAAAAAAAAAAA",
"AAAAAAAAAAAAAAAAAAAAAAAAAAAAAAAAAAAAAAAAAAAAAAAAAAAAAAAAAAAAAAAAAAAAAAAAAAAAAAAA",
"AAAAAAAAAAAAAAAAAAAAAAAAAAAAAAAAAAAAAAAAAAAAAAAAAAAAAAAAAAAAAAAAAAAAAAAAAAAAAAAA",
"AAAAAAAAAAAAAAAAAAAAAAAAAAAAAAAAAAAAAAAAAAAAAAAAAAAAAAAAAAAAAAAAAAAAAAAAAAAAAAAA",
"AAAAAAAAAAAAAAAAAAAAAAAAAAAAAAAADDDDEEDAEFAAEEAAAAEAAAAAAAAAAAAAAAAAAAAAAAAAAAAA",
"AAAAAAAAAAAAAAAAAAAAAAAAAAAAADAAAADEEEEAFAAEEEDADEAAAAAAAAAAAAAAAAAAAAAAAAAAAAAA",
"AAAAAAAAAAAAAAAAAAAAAAAAAAAAADDDDEDAAEFFEEAFCCDEEAEAAAAAAAAAAAAAAAAAAAAAAAAAAAAA",
"AAAAAAAAAAAAAAAAAAAAAAAAAAAAADDEEEFFGGGGHGGLHGEAEAAAAAAAAAAAAAAAAAAAAAAAAAAAAAAA",
"AAAAAAAAAAAAAAAAAAAAAAAAAAAAAADEEHGGGGJJKGSNMNNGAEAAAAAAAAAAAAAAAAAAAAAAAAAAAAAA",
"AAAAAAAAAAAAAAAAAAAAAAAAAEAEFGGGGGHHIIIIHHNNNNNMNKEEEDAAAAAAAAAAAAAAAAAAAAAAAAAA",
"AAAAAAAAAAAAAAAAAAAAAADDDDEEEJGGIJJJIIIIHINOOOONLROFADAAAAAAAAAAAAAAAAAAAAAAAAAA",
"AAAAAAAAAAAAAAAAAAAAAAEEEEEMONFHJIIIIIIIIINQQQQORNRHGAAAAAAAAAAAAAAAAAAAAAAAAAAA",
"AAAAAAAAAAAAAAAAAAAAAAEEEGNLMQGJGJIIIIIIJHQQQQQOOSOGGIAAAAAAAAAAAAAAAAAAAAAAAAAA",
"AAAAAAAAAAAAAAAAAAAAAABEFLMNMRGJJIIIJJIIIHRRQQQRQSKGGGHAAEAAAAAAAAAAAAAAAAAAAAAA",
"AAAAAAAAAAAAAAAAAAAAAAEDLNNLMOMHJJKKJJKKJHRQQRQRQOGGHGGGDAAAAAAAAAAAAAAAAAAAAAAA",
"AAAAAAAAAAAAAAAAAADDDDAGNNNNOOOJIKKJKKJJIKRORQRRRLGIIHGGFAAAAAAAAAAAAAAAAAAAAAAA",
"AAAAAAAAAAAAAAAAAAEEEEGNNOQOOORLKKKLKKLLLNSSSQQRRGHIIIJHIFAAAAAAAAAAAAAAAAAAAAAA",
"AAAAAAAAAAAAAADDDDEFFENNORNQRORNKLNMPPafcaaSSSQOLHHIIJJHIJEAAAEAEAAAAAAAAAAAAAAA",
"AAAAAAAAAAAAAADDDDAAAONNQOQOOQMSRPaeedYdddeefaSSLHLKJJHKHKHAADEAEAAAAAAAAAAAAAAA",
"AAAAAAAAAAAAAADDDDFEKRRRQQQQORSSaedcceefecdVeeePNNHIJJKJIHKNOFAEDAAAAAAAAAAAAAAA",
"AAAAAAAAAAAAAADDDDFFNORRQRQQQSSafdbeYdWbXXbZedeaMNKHJJKIKJNSRIAEAAAAAAAAAAAAAAAA",
"AAAAAAAAAAAAAADDDDBCSRRQRRRRSSfedbbdUUUcVVVWeZZdfMQJKIKLJLQLOSAEDAAAAAAAAAAAAAAA",
"AAAAAAAAAAAAAADAAEGGSNRQRRQSSaedcYUTTTVcTUVUdVYcdfPNHKLJMNNNNOFDEAAAAAAAAAAAAAAA",
"AAAAAAAAAAAAAAEAAFIHKSSRQRSSfdddbUUTTUVbTUWVYTWbeeePNHHLNLNQOOOAEAAAAAAAAAAAAAAA",
"AAAAAAAAAAAAAADAEGGGGGMSSSSSeddWTWUTTUVbTUWUYTTVcedfNONOMOOOQQSFAAAAAAAAAAAAAAAA",
"AAAAAAAAAAAAAAAAFJHIHGIJSSSfecYTTUUTTUVcTUWWYTTWYZebSRSNNOQQQROGAAAAAAAAAAAAAAAA",
"AAAAAAAAAAAAAAAAGGHIJIIJNSaebWXTTVUTTUVcTTTVbUVUYWcdaSSNNOQQQQQODAAAAAAAAAAAAAAA",
"AAAAAAAAAAAAAADAHGHIJIIKMNfebVYTTVUTTUVcTTTVbUVUXVYdeSSNNOQQQQQQCAAAAAAAAAAAAAAA",
"AAAAAAAAAAAAAAEFIGIJJJJLQPeeVUYTTVUTTVVcTTTVbUVVWTUcdaSRORQQQQQRGAAAAAAAAAAAAAAA",
"AAAAAAAAAAAAAAEGGHJJJJKHNefdTUYTUVUTTVVdTTTVbUVVYTTXdfSSRQQQQRRRNAAAAAAAAAAAAAAA",
"AAAAAAAAAAADADAHHIKJJIIIMeebTUYTUVWTUUUZTVTYbTYWYTTVbeaSRRRRROORSAAAAAAAAAAAAAAA",
"AAAAAAAAAAADADEKKJKKKKLKPeeUUWYTUWVTUZbcUTTXdTXVYTUTbeaSOSQQRRORSAAAAAAAAAAAAAAA",
"AAAAAAAAAAADADFLKJKKKKLLfedTfWbUUZTUTfVfTTfXdTfVYUUfWdfSSRRORSSSNAAAAAAAAAAAAAAA",
"AAAAAAAAAAADADGLKKKKLLKLfedTfWYUUXVUUfYeTTcXdTfVYTUZVdeSSSSSSKIKGAAAAAAAAAAAAAAA",
"AAAAAAAAAAADADIKLLKKKJJQfeTUYVYUVWWTVWTeTUVWcUYWYTTUWbdSMHGGGGKHIAAAAAAAAAAAAAAA",
"AAAAAAAAAAADADFMRRRRRQOReebTWYYTVWUTUWVcTVYXdUWYYTTTWWePMGGGHIIIJAAAAAAAAAAAAAAA",
"AAAAAAAAAAADADEKNMNMLLQSdebTYYYTVWUUUWVcTVYXdUWYYTTTWWePMGGIJIIIJAAAAAAAAAAAAAAA",
"AAAAAAAAAAADADAOMMLNNNRSedYTYYYTVXUUUWVcTVYXdUWYYTTTWWePMGGJIIIIJAAAAAAAAAAAAAAA",
"AAAAAAAAAAADADDNNLOQOOOSddYTYYYTVXUUUWVcTVYXdUWYYTTTWWePMGGJIIIIJAAAAAAAAAAAAAAA",
"AAAAAAAAAAAAAACNLOQQQQQSdcXUYbbTWWVUWXVcTWVXeTWWZUUWYYeaMGHJIIJJIEDEAAAAAAAAAAAA",
"AAAAAAAAAAAAAACNLOQQQQQSdcXUYbbTWWVUWXVcTWVXeTXWZUUWXbeaMHIJJHJKKEDEAAAAAAAAAAAA",
"AAAAAAAAAAAAAACNNRQQQQQSecXUYbbTWWVUWXVcTWVXeUXWZUUXXbeaMJJJKKIKKEDEAAAAAAAAAAAA",
"AAAAAAAAAAAAAACQQRRRRROSdcXUYbbTWWVUWXVcTYWYeUXWZUUYWbeaNLKJKKIKJEDEAAAAAAAAAAAA",
"AAAAAAAAAAAAAAERRRRRRRNSdbXUYWcUWUVVdVXdTeTVdUTVXTTbUXcaNLKKKKKKKEAEAAAAAAAAAAAA",
"AAAAAAAAAAAAAAESRSRRSRNSdbXUYWcVXYYTafTZUafXeTZVXTTbUXcaNMKKKLKKJEEAEAAAAAAAAAAA",
"AAAAAAAAAAAAAAASROSSQRRSdcYVYWcVXdXafffYXfffaTZVYTTbUYeaNNMLLLLLNFAFAAAAAAAAAAAA",
"AAAAAAAAAAAAAAFHSRLIHHILdcYVYWdVXWZfUdfefaWffbYWYTTbUYefSSONONNMLNFAAAAAAAAAAAAA",
"AAAAAAAAAAAAAAEGGGHGJJIMecYVYWdVYVZfTVfafTVafUVWYTTcUYcaSRNLMMMMNLHAAAAAAAAAAAAA",
"AAAAAAAAAAAAAAAJGGGHHHIMeccUYYbWYTXfaVfWffVfaYZXYUUbVYcfSONNNOOOONMEEAAAAAAAAAAA",
"AAAAAAAAAAAAAAAIGGHHHJIMeccUYYbWYdYXfffcVfffcWZXYUUbWYcfSNNOOOOOONOCDAAAAAAAAAAA",
"AAAAAAAAAAAAAAEGGKLHJIIMeccUYYbWYcYYVVVdXUVYdWcXYUUcWbcfSNOQRQQQQQRCAAAAAAAAAAAA",
"AAAAAAAAAAAAAAEGIKHJIKIMeccUYYbWYbccYaYeUWVWeXTXYUUcWbefSOQOORQQROSFAAAAAAAAAAAA",
"AAAAAAAAAAAAAAFGJHJJJJIMedbVcXcXYYXXZYXcWbbYeWXbcVYZbcZfSQQQQQQQQRRFEAAAAAAAAAAA",
"AAAAAAAAAAAAAAGGJIJJJJIMedbWcXcXYYXXZYXcWbbYeWXbcVYZbcbfSQQRRRRRRRRGAAAAAAAAAAAA",
"AAAAAAAAAAAAAAHHKIKKKKIMedcWcXcXbYXXZYXcXbbYeWXbcWYZbccaSQRRRRRRRRRIAAAAAAAAAAAA",
"AAAAAAAAAAAAAAHKKKKKKKIMedcXbYcXbYXXZYXcXcbYeWXbcWbZbccfSQRRRRRRRQOIDAAAAAAAAAAA",
"AAAAAAAAAAAAEEFLKKLKIHINeecXbccWZZXXZZZebZZZeXXZcXZZcccfSSRSSSRRONRAEAAAAAAAAAAA",
"AAAAAAAAAAAAAAFNNLNNNNNSeecXbccWZZXXZZZebZZZeXZZcXbZcceaLLIIJKKLLLLFDAAAAAAAAAAA",
"AAAAAAAAAAAAEANNNNNNMMNSedeYbceXZZXXZZZebZZZeXZZcXcbcceaLHGGGHGGGGHGAAAAAAAAAAAA",
"AAAAAAAAAAAAEENNOQOOQQOSedebbceXZZXXZZZebZZZeXZZbWcbcceaLFGGGGGGHGHHAAAAAAAAAAAA",
"AAAAAAAAAAAADENOQOOQQONSedebbceXZZXXZZZebZZbeXZZbWcbcceaLGGGGHHHKIHHAAAAAAAAAAAA",
"AAAAAAAAAAABADNQOQQQQQOSeeeXZZcZZZXZcZXeZbcceZZZcYbZbdeaNGGHIJJJJJKJAAAAAAAAAAAA",
"AAAAAAAAAAABAANRQRQQQQOSeeebYceccdXZcbZeYebZeccbeZZecceaNGGJKJJJJJKJAAAAAAAAAAAA",
"AAAAAAAAAAABAARRRRRRRROSeeeXZceccZZbcZccWccceZZZeZZZcceaNGHKKKKKKKKKEAAAAAAAAAAA",
"AAAAAAAAAAABDASRRRRRRROSebeZfbcbbaZbafZeccebecfZcZcfceeaOJKKKKKKKKLKEAAAAAAAAAAA",
"AAAAAAAAAAAEAASRQSRRQOQSfccZfbecZZbZZfceXZcceXfcccZcedeaOILLLKKLLLMQFEAAAAAAAAAA",
"AAAAAAAAAAAAEEMSSRORSSSSfeeebcecbYWceZeecXZXedeZeececdeaSNMLLNNNOQNLCAEEAAAAAAAA",
"AAAAAAAAAAAAEFFGGHGGGHILfcecdcecbYdcedcecZbbeddZeeccbeeaSONNNNNNNNNNHAFEAAAAAAAA",
"AAAAAAAAAAAAAGGHHGGGHHHMfeeZececcZZcceceeccdeeeeeeceeefaSNNNNNNNNQOOOFFEAAAAAAAA",
"AAAAAAAAAAAFEGIIJJJJJJHNfeeeedeecceddcceeeececeeeeeceeefSNOQOQRRQRQQOHFFAAAAAAAA",
"AAAAAAAAAAAEEHKKKKKKLLHLfeeeeceecceeccceeccceceeeeeceeffSOOQOOQRORRRRNAAAAAAAAAA",
"AAAAAAAAAAAAAHMMMMMLLLLMfddddddddddddddeddddedddddddddefSQRRRSSSSSSSSLFEAAAAAAAA",
"AAAAAAAAAAAAAAGGHHIHHHGGMMMMMMMMMMMMMMMMMMMMMMMMMMMMMMMMMKIJKKKKKIIIHEEEAAAAAAAA",
"AAAAAAAAAAAAAAAADDAAAADEFDEEECCCCEDCCDCFEDDDCECDEDCECCFBEFEDEEAADEDAAFAAAAAAAAAA",
"AAAAAAAAAAAAAADDDDAAAAEEEEEEEDDDDEEEEEEEEEEDDDDEEEEDDDAAAAAAAAAAAAAAAAAAAAAAAAAA",
"AAAAAAAAAAAAAAAAAAAAAAAAAAAAAAAAADDDAAAAAAAAAAAAAAAAAAAAAAAAAAAAAAAAAAAAAAAAAAAA",
"AAAAAAAAAAAAAAAAAAAAAAAAAAAAAAAAAAAADDDDAAAAAAADDDDAAAAAAAAAAAAAAAAAAAAAAAAAAAAA",
"AAAAAAAAAAAAAAAAAAAAAADDDDDDDAAAAAAAAAAADDDAAAAAAAAAAAAAAAAAAAAAAAAAAAAAAAAAAAAA",
"AAAAAAAAAAAAAAAAAAAAAAAAAAAAAAAAAAAAAAAAAAAAAAAAAAAAAAAAAAAAAAAAAAAAAAAAAAAAAAAA",
"AAAAAAAAAAAAAAAAAAAAAAAAAAAAAAAAAAAAAAAAAAAAAAAAAAAAAAAAAAAAAAAAAAAAAAAAAAAAAAAA",
};