/* XPM */
static char *b3c555fb30734da9cb13b331e9565bb4lLWTZK9HOLoioxMc[] = {
/* columns rows colors chars-per-pixel */
"64 64 252 2 ",
"   c None",
".  c #0C132B",
"X  c #0F1427",
"o  c #131226",
"O  c #13142C",
"+  c #1A162D",
"@  c #18192D",
"#  c #0D1834",
"$  c #121C32",
"%  c #1A1C33",
"&  c #131733",
"*  c #0F0F26",
"=  c #2C192C",
"-  c #26182C",
";  c #381A2C",
":  c #2A1B32",
">  c #371A32",
",  c #0C213B",
"<  c #1A2439",
"1  c #27273A",
"2  c #382436",
"3  c #35333C",
"4  c #392F2E",
"5  c #421B2D",
"6  c #461D33",
"7  c #561D32",
"8  c #561E2D",
"9  c #452629",
"0  c #53282B",
"q  c #4C2339",
"w  c #492236",
"e  c #54293C",
"r  c #5B2739",
"t  c #4A3338",
"y  c #5E333A",
"u  c #51382D",
"i  c #6B392A",
"p  c #753925",
"a  c #662835",
"s  c #6B353A",
"d  c #763638",
"f  c #682A27",
"g  c #6B4527",
"h  c #794828",
"j  c #7B433E",
"k  c #644D33",
"l  c #76663C",
"z  c #776A30",
"x  c #5B4B2D",
"c  c #152945",
"v  c #132E4D",
"b  c #2B2D43",
"n  c #272944",
"m  c #283548",
"M  c #37344A",
"N  c #273A54",
"B  c #3A3853",
"V  c #322D46",
"C  c #443A48",
"Z  c #5A3945",
"A  c #423E59",
"S  c #753947",
"D  c #1B4A5B",
"F  c #124A5C",
"G  c #25475C",
"H  c #3E4B55",
"J  c #175766",
"K  c #155167",
"L  c #355464",
"P  c #28576A",
"I  c #146675",
"U  c #0F6F7B",
"Y  c #276875",
"T  c #2D6972",
"R  c #454658",
"E  c #554D57",
"W  c #5B5353",
"Q  c #595357",
"!  c #544D50",
"~  c #7C4D43",
"^  c #7A4543",
"/  c #625858",
"(  c #6F4D4D",
")  c #6A6352",
"_  c #535465",
"`  c #655E67",
"'  c #4D6B72",
"]  c #6C696D",
"[  c #766B67",
"{  c #7C736C",
"}  c #7D7677",
"|  c #716B73",
" . c #86331B",
".. c #923718",
"X. c #853C2D",
"o. c #92393B",
"O. c #A33E28",
"+. c #984414",
"@. c #BC570B",
"#. c #A74914",
"$. c #B75510",
"%. c #894525",
"&. c #9A5524",
"*. c #984B38",
"=. c #9A543E",
"-. c #8E4D33",
";. c #B55B2A",
":. c #A45A36",
">. c #B04B37",
",. c #8D712F",
"<. c #B86736",
"1. c #AF6C31",
"2. c #AB6B18",
"3. c #C95B04",
"4. c #C35519",
"5. c #C96709",
"6. c #DA7706",
"7. c #D27210",
"8. c #E17A03",
"9. c #D57A3D",
"0. c #C56F32",
"q. c #C15923",
"w. c #9A5447",
"e. c #94514C",
"r. c #A65A49",
"t. c #B35449",
"y. c #BD4841",
"u. c #8A6856",
"i. c #A76748",
"p. c #B56A44",
"a. c #B77445",
"s. c #BC6954",
"d. c #AB7658",
"f. c #86756A",
"g. c #847875",
"h. c #917367",
"j. c #B77867",
"k. c #CF6E56",
"l. c #E7775A",
"z. c #D07A65",
"x. c #A68C2C",
"c. c #A4952C",
"v. c #D78A06",
"b. c #DC9804",
"n. c #CC9B1F",
"m. c #E38A04",
"M. c #E89605",
"N. c #EC9C0D",
"B. c #EBA303",
"V. c #F4B905",
"C. c #F8AB03",
"Z. c #D28B34",
"A. c #EC9C37",
"S. c #D3A822",
"D. c #F9C903",
"F. c #FDD301",
"G. c #F8DC08",
"H. c #FADB19",
"J. c #EFC415",
"K. c #FEE504",
"L. c #FBE415",
"P. c #F8DC23",
"I. c #F5D032",
"U. c #F9E32A",
"Y. c #DBD13D",
"T. c #B6924E",
"R. c #97867A",
"E. c #8F8379",
"W. c #AE8E71",
"Q. c #B9A95A",
"!. c #DB9946",
"~. c #D18C51",
"^. c #EC8D58",
"/. c #D5AC4F",
"(. c #C89B7C",
"). c #D68E6D",
"_. c #E68B66",
"`. c #E79773",
"'. c #F4986D",
"]. c #FAA775",
"[. c #FDB47D",
"{. c #EDA873",
"}. c #F1B545",
"|. c #BBC77A",
" X c #F6D44B",
".X c #F9ED49",
"XX c #F9D672",
"oX c #FDF17D",
"OX c #497284",
"+X c #577B88",
"@X c #647A87",
"#X c #867D81",
"$X c #579293",
"%X c #438792",
"&X c #688489",
"*X c #798B8A",
"=X c #799698",
"-X c #708E90",
";X c #739CA4",
":X c #6C9DA7",
">X c #76A5A7",
",X c #78A39A",
"<X c #8B8583",
"1X c #9A8C82",
"2X c #979690",
"3X c #A89789",
"4X c #8BA39D",
"5X c #B6A798",
"6X c #BCAB89",
"7X c #8AAAA5",
"8X c #99A8A6",
"9X c #90B3B2",
"0X c #ABB8B7",
"qX c #B0B1B0",
"wX c #849EA2",
"eX c #D8B78D",
"rX c #D7B18E",
"tX c #F7B787",
"yX c #E7A981",
"uX c #C3BFA6",
"iX c #9CC2BC",
"pX c #A9C7B9",
"aX c #B5D5BD",
"sX c #FBC995",
"dX c #FDD89C",
"fX c #F4C88F",
"gX c #FDF487",
"hX c #FDD6A3",
"jX c #FED9A5",
"kX c #F9D7A7",
"lX c #E6CAB6",
"zX c #F3D1AE",
"xX c #FAE9A8",
"cX c #FCE5B8",
"vX c #FCF6B4",
"bX c #CFC3AE",
"nX c #95BEC3",
"mX c #B5CCC9",
"MX c #B2D0CD",
"NX c #DADADC",
"BX c #CBCECA",
"VX c #E8D4C6",
"CX c #F4DCCB",
"ZX c #D7E6DB",
"AX c #F7EDD1",
"SX c #E5EBE5",
"DX c #FAF5EC",
"FX c #FBFBF4",
"GX c #FCFDFC",
"HX c #F7F9F7",
"JX c #EDF1EA",
"KX c #DBE5E0",
/* pixels */
"                                                                                                                                ",
"                                                                                                                                ",
"                                                                                                                                ",
"                                                                                                                                ",
"                                                                                                                                ",
"                                                                                                                                ",
"                                                                                                                                ",
"                                                                                                                                ",
"                                                        { V b 1 b b 1 2 4 2 C                                                   ",
"                                                      / BXGXGXGXGXFXFX XP.5...f 9 1X                                            ",
"                                                  / &.VXcX.X.XU.P.H.H.C.L.M.F.G.m.g                                             ",
"                                                ) u u 3 % $ $ c.U.G.H.oXI.AXAX!.3.3.i t                                         ",
"                                              R.C f.NXGXGXGX0Xc x.K.P.gXxXFX X5.3.V.m.+.=                                       ",
"                                              ! NXGX0XT T =XpX8Xc z L.U.AX.X7.3.V.F.D.6.6.;                                     ",
"                                            W NXGX8X=.4.q.i.&XiX7XN 4 P.vXK.5.3.D.F.F.M.8.7.&                                   ",
"                                          / %.SXqXi.lXJXzXN.a.=X7XG u H.gXK.@.D.F.F.F.M.8.6.7.%                                 ",
"                                          W %.KX8X2.CXGXFXkXZ.*X7XD 4 2..XK.3.G.G.F.F.C.m.8.6.+                                 ",
"                                        Q 1 2 NX8X0.XXAXFXxXZ.*X7XG : y l z 0 k x J.F.V.M.8.6.+ 5X                              ",
"                                      E ~./.~ BX0X~.J.XXdXXX/.4X7XG : y a.~.~.p.w.,.z g 2.m.v.+.!                               ",
"                                    5X= <.a.~ 2XpXuXQ.x.x.Q.uX8X&XG : s :.<.<.:.=.^ y e -.&.h 0 O                               ",
"                                    5X; *.*.^ 2 *XiX7X*X*X4X9X=XP N = r s s ^ j j j s a d s q q q W                             ",
"                                    2X> d s y h %.<X7X7X7X4X&XG ! %.%.%.%.&.e r e e e r d s r r e > W                           ",
"                                      9 h ,.,.n.S.2.h i i i i p &.6.b.b.b.M.,.h h h p r q q q q e q +                           ",
"                                    } R.{.XXoXoXgXXX/.v.v.v.v.b.b.V.G.K.K.F.F.B.B.B.v.&.h g g ; w 6 @                           ",
"                                  +.AXDXDXDXDXDXDXDXxXP.H.G.G.G.G.G.G.G.G.G.G.G.G.G.V.V.M.6.6.%.i i 0                           ",
"                                  m.8.5.@.@.$.#.#.#.#.#.#..... . . ...+.#.#.#.#.#.#.$.@.5.7.6.6.8.6.@.5                         ",
"                                  0 p p = B B B B M 1 + n B R R H B - k.O O O b M M V % % % : ; #.5.5.#.2                       ",
"                                    <Xn g.} g.#XQ 1 w.t.S | <X<X| M Z '.'.`.l.1 <X<X` 1 B B V n . f ; 2                         ",
"                                    1 } g.} } _ 1 e.^ r.u.Q ] _ B ^ '.[.# # l.E g.] V B R M . A N o                             ",
"                                      @ V V V + r.VXqXb 2 1 + O ~ {.kX% HXb Z : + @ 1 R C rXcX)./ E %                           ",
"                                        V O O s.l.r.1 $ d._._._.`.sXkX% R < < `._.( | ` Z z._.xX! B %                           ",
"                                          ).e.~.tXW.$ $ 6XhXhXhXhXjXhX% $ $ $ kXdX3Xg.` S o.>.jXW @ R.                          ",
"                                          (.e.j.fXW.$ $ 6XjXjXjXjXjXhX< $ $ $ kXjX[ M n o.>.y.dX! R.                            ",
"                                            z.W.fXW.$ $ 6XjXjXjXjXjXhX< $ $ % kXjX`._._.{.tXfXd.                                ",
"                                      Q Q   (.(.VXlXrXeXfXhXjXjXjXjXhXeXeXeXeXjXjX[.].[.tXfXu.R.                                ",
"                                    Q R pX]   f.BXCXhXhXhXhXjXjXjXjXhXhXhXhXjXjXsX[.d.u.u.u.g.                                  ",
"                                  Q NXKXiXR   1X2XrXsXhXhXhXjXjXjXhXhXjXjXtXtXtX].d.Z { R.R.                                    ",
"                                E NXGXMX' E.    1Xh.d.W.W.(.yXtXtXtXtXtXtX'._.d.i.h.g.                                          ",
"                              Q 8XGXMX' E.        1Xf.f.f.W.j.r.i.s.s.k.i.r.w.> % W ` R.                                        ",
"                            qX. HXNX:X$                   3X] : s t.t.>.& t t : w 5 ; = + o                                     ",
"                            3 SXJXmXOX$                   } X.*.-.l.l.7.: k.9.s - w *.Z.A.A.*                                   ",
"                          5XX GXMX7Xm 1X                { T.T.) Q.XX XT ~.[.2 ;  .9 r :.;.;.d o                                 ",
"                        5X1 $ SXMX;X<                 { :.<.X.,.Y.K.H.Y 9.<.= J.B.g r ;.q.0.d O                                 ",
"                        o - 1 ;X=XOX$                 } 1.<.Z J U U U v 9.<.= J.K.N.h = = - +                                   ",
"                        o vX< HXHX' q - +         ) . . :.&.L ,XaXpXY Y 5 0.5 ..^.^.j 5 6 6 = @                                 ",
"                        o }.< FXKXL q !.!.k * * . BXHXlXi.H mXAXI.I.P.> J 8 r a zXtX~ 7 *.:.6 o                                 ",
"                        o <.c JXZXG 7 ;.0.Z.Z.9.-.bXsX^.w.J |./.3 l V.a J $ o SXcX].~ 7 :.:.r o                                 ",
"                        O = N +X&XN r a a a X.*.X.eXyX*.; # c.S.c l V.a X DXDXcXjX].~ r *.=.r o                                 ",
"                          & $ mX;X+X< o O O & ; 0 eX{.*.; F T.D.G.G.N.7 O AXcXjXsX].~ d *.=.> O                                 ",
"                            @ FXnX$X< 3X      W t._.^.r.> F D - = - 1 Y v k.].].'.~ > > ; - +                                   ",
"                            $ GXMX>Xm           / = ; > + F I J J J I I I c l.l.l.j + + + R.                                    ",
"                            1 7XGX9XL <                 g.P U J # . , I I I c & O                                               ",
"                              . 9XSXOXc                 } =X9X;XF R } $ 9X>X%XF , E.                                            ",
"                              b . 0XmXR 3X            { c ' $X%XK M ` < $X$XY J J ,                                             ",
"                                & # wX9XH 1X            g.O $ , c v Q 5X. $ $ # #                                               ",
"                                  R . @X=XR           [ + i.a.s ; W 5X5XX ^.p.6 > f.                                            ",
"                                      O . $           [ :.0.*.a 5 W 5X5X. 9.0.a 6 O                                             ",
"                                                                                                                                ",
"                                                                                                                                ",
"                                                                                                                                ",
"                                                                                                                                ",
"                                                                                                                                ",
"                                                                                                                                ",
"                                                                                                                                "
};
