/* XPM */
static char *image_xpm[] = {
"80 80 64 1",
"A c #d26b57",
"B c #e9a51d",
"C c #aa5922",
"D c #e3eada",
"E c #211b21",
"F c #e69465",
"G c #9caaad",
"H c #5b7186",
"I c #1f4d68",
"J c #a95953",
"K c #5c575e",
"L c #c96c10",
"M c #728b93",
"N c #602b46",
"O c #b4cec8",
"P c #fade5f",
"Q c #f8e8a7",
"R c #fbd82a",
"S c #89372e",
"T c #145d83",
"U c #e6b58f",
"V c #58311b",
"W c #913745",
"X c #1f2f55",
"Y c #644326",
"Z c #aabac3",
"a c #bbcabc",
"b c #b5a05d",
"c c #b2c667",
"d c #000000",
"e c #081934",
"f c #f9fbf7",
"g c #fdd7a3",
"h c #fdd49c",
"i c #485970",
"j c #4d6278",
"k c #0d2646",
"l c #fdd809",
"m c #2e1831",
"n c #0d223b",
"o c #6b2835",
"p c #eda402",
"q c #542436",
"r c #d17709",
"s c #e89904",
"t c #fde677",
"u c #fcc993",
"v c #375671",
"w c #153454",
"x c #491b33",
"y c #354a66",
"z c #2a3851",
"0 c #105879",
"1 c #ec966e",
"2 c #fbc605",
"3 c #94472e",
"4 c #fce88a",
"5 c #733435",
"6 c #d5850c",
"7 c #111715",
"8 c #c7d8d1",
"9 c #071d42",
"! c #0b6286",
"@ c #b0580c",
"dddddddddddddddddddddddddddddddddddddddddddddddddddddddddddddddddddddddddddddddd",
"dddddddddddddddddddddddddddddddddddddddddddddddddddddddddddddddddddddddddddddddd",
"dddddddddddddddddddddddddddddddddddddddddddddddddddddddddddddddddddddddddddddddd",
"dddddddddddddddddddddddddddddddddddddddddddddddddddddddddddddddddddddddddddddddd",
"dddddddddddddddddddddddddddddddddddddddddddddddddddddddddddddddddddddddddddddddd",
"dddddddddddddddddddddddddddddddddddddddddddddddddddddddddddddddddddddddddddddddd",
"dddddddddddddddddddddddddddddddde96fffffffffQLBedddddddddddddddddddddddddddddddd",
"ddddddddddddddddddddddddddddddMdEqrDffffffffQ@BmdKdddddddddddddddddddddddddddddd",
"dddddddddddddddddddddddddddddGkeCLr444444444tCrLenddddeeeddddddddddddddddddddddd",
"ddddddddddddddddddddddddddddGEt4RBL4444ttttttCrpPsKiddeeeMdddddddddddddddddddddd",
"dddddddddddddddddddddddddddEEPttR2L4tttttttttrrBRRrrwHkffekddddddddddddddddddddd",
"ddddddddddddddddddddddddddntttttR2LKknnnnnnnKrr2RRll6ewvIfenkddddddddddddddddddd",
"dddddddddddddddddddddddddIU444ttRpLE8DDDDD8DYrrllRlRBCevvZfenedddddddddddddddddd",
"dddddddddddddddddddddddddetfffttRpk8DDDDDDDDdenllllll6evvdf9eedddddddddddddddddd",
"dddddddddddddddddddddddnEBtffftPY9DDyvvvvvvidDf9lllllrrVkjDffeHddddddddddddddddd",
"ddddddddddddddddddddddnB2RPffQPFGiDKrrpppssCKGddlllllr26Lzjfffeddddddddddddddddd",
"ddddddddddddddddddddddEllRBD4PPnGd8KpBQffDQ6KZGdnllllrBB6XiHGfkzyddddddddddddddd",
"ddddddddddddddffddddddYlllLPPPRnZOysDDfffffPsyyGellllrBBpqiMGffkkHdddddddddddddd",
"ddddddddddddddddddddddLlllLRRRReGGysDQfffffQsyydnllllr2BpVKHOff9eKdddddddddddddd",
"dddddddddddddddddddddkL2llrlll2edGyp4QfffffPsyydellllL2Bs5iiiHfffedddddddddddddd",
"dddddddddddddddddddeekKKMddGGGdeHdypB2Pff4tssivMedddGvviywkenHGffedddddddddddddd",
"ddddddddddddddddddeiIiiiiiKiiiieyjDVBBBt44PsVGDHeiijjiiiijjneeHffaeddddddddddddd",
"ddddddddddddddddddeiIiiiiiiiiii9kj8IBpppppppvDDHejjiiiiiiiikeeHfDOeGdddddddddddd",
"ddddddddddddddddddeyIjjijjjjjjjkkkdDyKpssBBiDHMekjjjjiiiiiikeeHDD8eddddddddddddd",
"ddddddddddddddddddeIzzwwwwkkkkkkneyG88OOO888jwwekkkkwwwwwzzweeHDD8eeEddddddddddd",
"ddddddddddddddddddieeeESCC@@@@LLL6ezzIviivvyknnrLL@@@CCCCeeenHwHHn3CJedddddddddd",
"ddddddddddddddddddHjGYVC@@CCLLrrrBVzzyiiivvyEVCrCC@@@@@CCEVHjieSJBP4PLeddddddddd",
"dddddddddddddddddddddLBsppBpBlllrrrke999eeenE666lll222BpssLiiveqCBPQFreddddddddd",
"dddddddddddddddddddrrDfffffffffffffCLrrrr6666ffffffffffDDDlLBeBFBBLCLreddddddddd",
"dddddddddddddddddddBBsssssspssspppppppppsppBBppppppsppsssssBBeCCCCC3S5eddddddddd",
"dddddddddddddddddddEEE777E77EA77777C7777ee7777EEEEAA77EEEEEEECoSSooxEeeddddddddd",
"dddddddddddddddddddqmmeeeeeeeAeeeeeJeeenkzze5eeeeeAAeeeeeemmECxxmeezneHGdddddddd",
"ddddddddddddddddddddddennekeeFJeeeeAmmeyyyIeAeeeeUFFekeeeeSLCCxxxeewwkdddddddddd",
"dddddddddddddddddddddMekniieeF1eeeeFAKeyjiyeAeeee11FeiKzneWNoNeeekdffdKddddddddd",
"dddddddddddddddddddneDQneKeFFAefffeFFFAeeeeAAeEffeUFAevyeFfEzEddj9MffDeddddddddd",
"dddddddddddddddddddghuAAAeAhhgefffeguuuAFFFuueEffeguUNeeWAAQQUdddeHffDeddddddddd",
"ddddddddddddddddddduuuAAJeAhggeeeeegguh1111hheeeeeguu5emWAAguUdddeHfDfeddddddddd",
"ddddddddddddddddddduu1AAJeUuhgneeeeghhhgghhhheeeeeghhFeEJAAhuUdddejZOfeddddddddd",
"dddddddddddddddddddJAhAAAAuhhgeeeeeghhhhhhhhheneeeghhhAAJAuhgJdddejGGfeddddddddd",
"dddddddddddddddddddbJUFFFAhhggneeeeghhhhhhhhheeeenQghgAAAAuJGddddeiGGfeddddddddd",
"ddddddddddddddddddddJJuhuAhhhhEEEE7ghhhhhhhhhEEEenQghgAAuuuJKddddeiGGDeddddddddd",
"ddddddddddddddddddddddEeeeFhgggghhhhhhhhhhhhhhUGgQGGhUnzzKKddddddeiGGDeddddddddd",
"ddddddddddddddddddddddddddohgghghhhhhghggggghhUMQdddgNeeendddddddeiGGGeddddddddd",
"ddddddddddddddddddddddddddNhgggggggggggggggghhUdDGGGgNeeeeGddddddeiZOZeddddddddd",
"ddddddddddddddddddddddddGeeWogggggggggAAAAAgggUddgghNeSQPPeddddddej8DHeddddddddd",
"dddddddddddddddddddenkkeEFFmmmFgggggggggggggggggg1EemoBspxReeddddeHDDedddddddddd",
"ddddddddddddddddddeDDDeFFB@NKeeAAAF11FFUUuUUF1FAJ9eeoo2BBmRVFHdddeHGdedddddddddd",
"dddddddddddddddddd9DDDeFBBC5NeeAAF11FFUuuuhuuU1FJeeeooR@CmCss9dddeHGGedddddddddd",
"dddddddddddddddddkgggggEE33qqeeqEnemNNWJJJWN9eeeSEkkqop@@m@LL9dddeMjjedddddddddd",
"dddddddddddddddE9hggggAQg1NeeMmBCCeMMMJJJWJHHeeCBm8OeerLCepo59ddMeHeeddddddddddd",
"ddddddddddddddIeeVFggFJgh1eddOmPBBn8aaJFFJKdOneBBm8ODnEK6sBEEddddeezdddddddddddd",
"ddddddddddddddzkemFQQFJQh1eMMOmP6Bk88aJAFJKd8keBBm8OOemJB66Eeddddeezdddddddddddd",
"dddddddddddddeAttCmWSoxxxmHOOOmsr6kwwwHffDIwwkeBCm8OOOeeeeeddddddddddddddddddddd",
"ddddddddddneePPBCCSNqmAAFIDvyOmCCCw0II!00T00IkeCCmvIITTee5eddddddddddddddddddddd",
"dddddddddnXVPBC3SoEmEJAFFvDvIOeC@CXccMTTTTTbPknC3eGOOOOGG5mddddddddjiddddddddddd",
"dddddddddexYPBC3S5eeeAAFUyDvvHeoo5IR2b!TTTTl2kkS5eDDDDDGG5xddddddddnkddddddddddd",
"dddddddddkmxCC5qqeddHeA1Uv8vveeeek0III!!!!TII!0eqkHTTTvyXCmddddddddkkddddddddddd",
"ddddddddddeexoNeedddddeIzHHeEKKNNK900IMMMMMI000neeAF111JN6mddddddddddddddddddddd",
"ddddddddddeem5NeedddddeKiHHmEfffffm!!IfffffI!TInee1F11FJN6eddddddddddddddddddddd",
"dddddddddddMeeeGdddddddeeeeqqQtQQgmoCCQ5oBlCSSSCoeuUhggJN6eddddddddddddddddddddd",
"dddddddddddddddddddddddddddxERl4CCm53CQ5oBlS3SSmmFhhgggJN6eGddddddkwKddddddddddd",
"dddddddddddddddddddddddddddqmm2mNmm333PooBlS33omuuhhgggJW5edddddddkwMddddddddddd",
"dddddddddddddddddddddddddddqqmBm55mJ35lRR22oKKqm1hhhgggJJmeddddddddddddddddddddd",
"dddddddddddddddddddddddddddqx33333mexV2ll22xeeemAhgggggAAekddddddddddddddddddddd",
"dddddddddddddddddddddddddddqxxqqoomTwwxxxxxw0XwkoAAAAAAoxdddddddzwwddddddddddddd",
"dddddddddddddddddddddddddddddeeeeewTT00IIII00!0IeeeeeeeKddddddddzzzddddddddddddd",
"dddddddddddddddddddddddddddddek99eI!000III00!!!TkkeeKKNddddddddddddddddddddddddd",
"ddddddddddddddddddddddddddddde000T!!keeeeeekT!!!!XeedddddddDDDdddddddddddddddddd",
"ddddddddddddddddddddddddddddde2lll2kkneddinkk22llp7ndddddddMMddddddddddddddddddd",
"dddddddddddddddddddddddddddddeVVVVV3mmdddddxSCVVYVeeddddddddddddiiIddddddddddddd",
"dddddddddddddddddddddddddddddexxqoo3mEdddddxS5oqxXeeddddddddddddzzzddddddddddddd",
"dddddddddddddddddddddddddddeeqCCC3qqeEdddddeqqoS33S5edddddddddddkkkddddddddddddd",
"ddddddddddddddddddddddMijjjmEBBBLLqqeejjjjHeqqxCBBBFeiiiiMdddddddddddddddddddddd",
"dddddddddddddddddiiiiijjjjjeeoNqqqqeeejjjjjeeqoqoooNejjjjjiiiiijdddddddddddddddd",
"dddddddddddddddddijijjjjjjjeeoooooNeeejjjjjeeooooNo5ejjjijjiiividddddddddddddddd",
"dddddddddddddddddddddHjjjjjnkkkkkkkyijjjjjivykn9ennenjjjjjjHdddddddddddddddddddd",
"dddddddddddddddddddddddddddddddddddddddddddddddddddddddddddddddddddddddddddddddd",
"dddddddddddddddddddddddddddddddddddddddddddddddddddddddddddddddddddddddddddddddd",
"dddddddddddddddddddddddddddddddddddddddddddddddddddddddddddddddddddddddddddddddd",
"dddddddddddddddddddddddddddddddddddddddddddddddddddddddddddddddddddddddddddddddd",
};