/* XPM */
static char *player_64x64[] = {
/* columns rows colors chars-per-pixel */
"64 64 256 2 ",
"   c #000000",
".  c #03060B",
"X  c #09090B",
"o  c #040E1C",
"O  c #050B13",
"+  c #1B0D19",
"@  c #0C1118",
"#  c #16181A",
"$  c #160D0B",
"%  c #261313",
"&  c #27231B",
"*  c #372519",
"=  c #091527",
"-  c #131B2D",
";  c #141826",
":  c #051731",
">  c #071935",
",  c #0A1A35",
"<  c #091C39",
"1  c #131D34",
"2  c #191B36",
"3  c #040F20",
"4  c #251A29",
"5  c #251C34",
"6  c #381D33",
"7  c #381D29",
"8  c #1C222B",
"9  c #0D223D",
"0  c #1B2434",
"q  c #1B253A",
"w  c #1D2A3D",
"e  c #152338",
"r  c #282629",
"t  c #342628",
"y  c #252839",
"u  c #372737",
"i  c #23303E",
"p  c #373635",
"a  c #39393A",
"s  c #363226",
"d  c #1F2016",
"f  c #471D32",
"g  c #57282E",
"h  c #563826",
"j  c #472636",
"k  c #582736",
"l  c #473936",
"z  c #513634",
"x  c #793A28",
"c  c #682B35",
"v  c #693733",
"b  c #743433",
"n  c #68322C",
"m  c #5E3400",
"M  c #7A4E1B",
"N  c #554834",
"B  c #6A4829",
"V  c #734B31",
"C  c #7C623C",
"Z  c #73660B",
"A  c #0C2646",
"S  c #1B2C44",
"D  c #152B47",
"F  c #1D314B",
"G  c #183A56",
"H  c #08355B",
"J  c #272C43",
"K  c #2A394B",
"L  c #293648",
"P  c #383845",
"I  c #283C56",
"U  c #37384E",
"Y  c #593C46",
"T  c #4D3043",
"R  c #6F3E40",
"E  c #14405C",
"W  c #2D4159",
"Q  c #3C4C5D",
"!  c #354558",
"~  c #384B54",
"^  c #0E4262",
"/  c #174767",
"(  c #1C516D",
")  c #0D597D",
"_  c #135677",
"`  c #0B4B71",
"'  c #384B63",
"]  c #3B526B",
"[  c #29506C",
"{  c #38667A",
"}  c #584946",
"|  c #434B58",
" . c #46535E",
".. c #575856",
"X. c #4E4C4C",
"o. c #654A45",
"O. c #794946",
"+. c #645A5A",
"@. c #665649",
"#. c #6B6954",
"$. c #485769",
"%. c #555D64",
"&. c #465971",
"*. c #4A5C73",
"=. c #445A73",
"-. c #414B63",
";. c #4E637A",
":. c #4A6177",
">. c #54687A",
",. c #5A676D",
"<. c #68767A",
"1. c #6E6B70",
"2. c #6B5762",
"3. c #8B3C2E",
"4. c #845718",
"5. c #99551A",
"6. c #8F4B1F",
"7. c #A55416",
"8. c #B05B1E",
"9. c #A96715",
"0. c #BB6714",
"q. c #B67116",
"w. c #874529",
"e. c #974D26",
"r. c #99542B",
"t. c #8E5231",
"y. c #A55A27",
"u. c #A2542E",
"i. c #956824",
"p. c #8F702B",
"a. c #B86826",
"s. c #B57524",
"d. c #A9722E",
"f. c #8F6417",
"g. c #CA770B",
"h. c #C67516",
"j. c #CC740C",
"k. c #C47922",
"l. c #833C42",
"z. c #96544A",
"x. c #995654",
"c. c #8A504A",
"v. c #A95952",
"b. c #AF554F",
"n. c #866652",
"m. c #916952",
"M. c #A46859",
"N. c #BB6858",
"B. c #B67556",
"V. c #92756D",
"C. c #B17463",
"Z. c #8E5F64",
"A. c #D6795B",
"S. c #CF6C57",
"D. c #CC7A63",
"F. c #718274",
"G. c #B59315",
"H. c #8F953B",
"J. c #B38D30",
"K. c #9CA53A",
"L. c #B19C29",
"P. c #CD8508",
"I. c #D9880A",
"U. c #DB9207",
"Y. c #D89416",
"T. c #D18918",
"R. c #E69E06",
"E. c #E29918",
"W. c #DCA418",
"Q. c #CEAF0F",
"!. c #E9A517",
"~. c #EFB111",
"^. c #D08F2A",
"/. c #DAA83B",
"(. c #CCAA27",
"). c #E7B032",
"_. c #FEDB0A",
"`. c #FBD90A",
"'. c #FAD615",
"]. c #F5C80E",
"[. c #F9D330",
"{. c #B68753",
"}. c #979779",
"|. c #B08C71",
" X c #A6A660",
".X c #D18A4D",
"XX c #DDA941",
"oX c #CEB24E",
"OX c #E6B04A",
"+X c #C5856A",
"@X c #D78867",
"#X c #CF9471",
"$X c #EB9468",
"%X c #E9936D",
"&X c #CAB06E",
"*X c #EAA77C",
"=X c #F0A579",
"-X c #E1815F",
";X c #F5CA49",
":X c #FDE259",
">X c #F2CF6D",
",X c #FFE97A",
"<X c #FCE47B",
"1X c #FEE264",
"2X c #0C5C84",
"3X c #135B80",
"4X c #296C88",
"5X c #557589",
"6X c #687A89",
"7X c #748792",
"8X c #6C95A8",
"9X c #5B8695",
"0X c #849496",
"qX c #90958E",
"wX c #BAB597",
"eX c #889AA4",
"rX c #99A8AA",
"tX c #9AACB1",
"yX c #97B5B6",
"uX c #ABB9B9",
"iX c #B6B9B8",
"pX c #ADB0AE",
"aX c #A59A8E",
"sX c #D6A884",
"dX c #CDB090",
"fX c #F3B688",
"gX c #EAB78C",
"hX c #D59B8F",
"jX c #BDC5BC",
"kX c #EAC696",
"lX c #FBCA96",
"zX c #F6C796",
"xX c #FDD49D",
"cX c #F5DA96",
"vX c #EDCC8F",
"bX c #F8E795",
"nX c #FEEE8E",
"mX c #CDC8A7",
"MX c #FDD6A1",
"NX c #FED9A4",
"BX c #F3DBA8",
"VX c #E2CCA8",
"CX c #FBF0B6",
"ZX c #F9E9AD",
"AX c #D7C492",
"SX c #B0BAC1",
"DX c #B7C5C5",
"FX c #B5CEC8",
"GX c #C5CBCD",
"HX c #CED6D5",
"JX c #DAE4D9",
"KX c #E4ECDC",
"LX c #F6F1CF",
"PX c #F8FBF7",
"IX c #F3F5E8",
"UX c #DDE3E0",
/* pixels */
"                                                                                                                                ",
"                                                                                                                                ",
"                                                                                                                                ",
"                                                                                                                                ",
"                                                    . % p p p p p p p s % %                                                     ",
"                                                r O 2 d.KXPXPXPXPXPXPXBXT.i.. #                                                 ",
"                                              | ! t e.h.bXCXCXCXCXCXCXcXq.q.* w .     o o O                                     ",
"                                            X.+.&XoX!.T.<XnXnX,X,X,X,X<Xs.I./.J.} y . - S ! r                                   ",
"                                          # N oX,X:X'.T.&X&X&X&X&X&X&X&Xj.I.[.[.Y.i.Q I SXeXF O .                               ",
"                                        0 }.,X<X<X:X].g.X.<.<.<.<.<.<.#.g.R.'.[._.~.4.S [ 8XrXS , .                             ",
"                                        | bXLXLX,X:X~.C qXJXKXKXKXKXKXN h G._.'._.'.Y.p ] Q iX&.> 3                             ",
"                                    # * J.ZXPXPX,XoXN rXjX<.<.<.<.<.<.y rX7XG._._._.R.9.z K rXJXrXI 8                           ",
"                                  O p.~.[.bXIXZX>X|.,.uXV.g.Y./././.s.+.0X8 Z `._._.R.R.P.t.=.DXIXeX3 @                         ",
"                      ....        $ G._.].OXbX1XoX*.<.7X{.OXBXPXPXIX>Xd.7X,.i Q._._.R.E.!.i.' 6XuXGX' I 8                       ",
"                      ....        * W._.~.E.[.[.(.$.uX,./.KXIXPXPXPXCXW.| Q i Q._._.R.R.~.q.} 6XDXPX6X9 |                       ",
"                                . h !.'.Q.Y.'.'.G.8 1.,.).bXLXPXPXPXbXW. .w = G.].].Y.W.!.9.X.=.5XSXUXSXy                       ",
"                              1 A ! +.<.& X.qXqXr K K %.T.~.;XLXLXbX).P.,.6XW d & ..<.$.%.Q I e S 6XJXIX!                       ",
"                            o ' [ &.&.&.$.$.&.&.' D &.uX@.!.!.[.;X;X~.C jXuXI ' &.&.&.=.&.&.&.F : I DXPXrXy #                   ",
"                            o W [ &.&.&.&.&.&.&.] A F  .qXn.T.R.R.!.J.eXrX7XD ] ;.&.&.=.=.$.&.F : I DXKXrXJ #                   ",
"                            = G I I I W I K K K K S 0 K rXtXpXwXwXmXpX7XW F q K K I W I I I I D > I uXJXrX; # .                 ",
"                            L I K 8 n e.5.5.7.7.0.0.h.l I ' { ;.;.:.=.F 0 B 0.8.7.7.5.e.y.n , S I ] $.<.@.d.B.z .               ",
"                            y W ..4.9.g.g.h.g.U.R.U.I.5.J F I I I G G r 4.j.P.T.P.P.P.g.g.9.M %.*.I j u.).<X>Xk.;               ",
"                              m 5.kXcXcXcXcXcXbXnXcXkXgXV M M M 4.4.4.i.kXkXbXnXbXbXbXcXvXvX).d.n.N d.^.!..X.Xh.;               ",
"                              9.E./.XXXXXXXXXXOXXXXXXX/.U.U.U.U.U.U.U.Y././.OXOXOXOX/.XX/./.W.Y.s.h a.s.a.e.w.x =               ",
"                              * t & d & & & & u.& d & & w.& & & 0 r & & & & t t S.t.# & t t t t h w.b b k g t 1 S #             ",
"                              % + ; , , > < , v.l > , 0 c.2 , D I I D v 1 > , X.A.c.> > : > 6 n x w.f 6 , A D 9 ~ a             ",
"                                @ K 9 A I K , B.M., , q N.O.y W &.] F z.0 , , |.$Xn.F I S > k w.3.g 2 5 : | tXL r               ",
"                              ; | mX..q | @.{.D.2.GXGX| @X@XB.P J J O.N.- ,.GX2.*X@XY ' I } dX+.T 4 . K F rXPXiXy               ",
"                              |.zXfXS.v.j @XxXgX| GXGX| gXlXzX@X@X@X*XgX0 ,.GX| gXzXZ.1 u b.A.gXkX#.  . D tXPXJXe               ",
"                              #XlX%XS.v.P *XxXkXS , , w kXxXxXfXfXfXzXkXw , , w kXxX+Xr 6 b.S.fXlXm.    e eXJXUXq               ",
"                              M.*X%XS.N.M.zXxXkXw > , w kXxXxXMXMXxXxXkXw , , w kXxXzXm.c.N.%XlXzXO.    e 7XuXJXq               ",
"                              C D.*X$X$X%XxXMXkXw : : q kXxXxXxXxXxXxXkXq > : S kXxXMX-XS.S.*X#XqX$     e 6XrXHXq               ",
"                              $ b M.#X#XC.lXxXkX@.N N } kXxXxXxXxXxXxXkX} l P ..VXBXxXC.N.sXsXx.a       e 6XtXGXq               ",
"                                  X @ 3 r #XNXNXMXxXxXxXxXxXxXxXxXxXxXxXlXwXmX|.%.}.sXL S K P X         e 6XrXuXe               ",
"                                        X M.NXNXMXMXMXMXMXMXMXMXMXMXMXxXxXV.qXF.%.}.V.1 , , ~ #         e 6XuXtXe               ",
"                                       .y Y x.sXMXNXNXNXNXNXfX@X@X@XfXNXMXm.r dXVXaXT v &XoX#.@         e 7XJX7X-               ",
"                              L Q I y } .Xz.6 u |.fXfXzXlXlXzXzXzXzXzXlXzXgXsX|.p y k T.~.s.J.N y @     e eXjXK                 ",
"                            3 uXKX0Xn.OXE.e.Y e u S.A.$X%X$X=XfXzXlXzXfX=X$XN.J : 5 c W.Y.t.p.s.{.i     D 7X1.1                 ",
"                          . +.VXCXmXn.M a.w.k 1 y b o.o.O.x.M.+X+X+XC.1.+.o.c.t 9 u c T.0.x x g.9.3     S 6X7XS                 ",
"                      . @ X.kXNXMXfX#XdXB.j - &.z s.w.y >.6XZ.v.v.z.2.=.< t s.z rX6Xr 9.0.B f.e.v 3   W K ] e O                 ",
"                      D < r B.xXxX@XsXNX+X; 8 0X@.;XE.X.DXFX|.A.A.x.r 7XD B !.V DXGX,.4 n.I.E.h ;     X , S ;                   ",
"                    . Y #.@.c.#X#Xz.V.|.n.,.tXyX@.).Y.X.7X7XV.hXgXV.w >.D B Y.z DXFX7Xu V i.4.& O       o = @                   ",
"                3 o N OXOX^.x c k c z.z.$.rX7XtXz 0.0.P ^ G ( 8X8X5X` ^ A N a.z 6X9X9X( > 2 2 .                                 ",
"              = J C ).^.y.3.g 6 u v.-X@X7XrX[ eXa 7.7.X. X}.4X) ) 2XF. XS z u.u 0XyXyXyX7X1.j .           ; ! @                 ",
"              , f p.).y.3.b 4 = P N.-XsX6XtX] =.q k k Q (.L.{ 2X3X2XH.(.G L b J uXFXFXDXeXV.g X           @ D O                 ",
"              = 2 g w.b u 4 .   i u Z.V.6X6XI L y 5 J G ( / { 4X4X4X[ ( ) ^ 5 J 1.<.<.1...V n .           O , .                 ",
"                : 2 k T < o       . I ' 5X-.4 qXiXpXiXQ ) _ eXHXGXHX9X) ) G , 0 @X$X%X$Xx.r.B .                                 ",
"                ; ! ; y %..         ; q S u j AXbXCXBX} Y t.sX|.M.;XJ.O.R V n u gXfXzXfXx.r.B o                                 ",
"                  X     X                 + 7 J.[.{.r.j b e.&Xc.3.~.s.3.3.n z +XxXxXNXzXx.t.N $.X       X A Q #                 ",
"                                          % j j G.j k 6 t.w./.J.s.].s.O.O.f C.lXxXxXMXzXv.l.5 .         . - K #                 ",
"                                          % k v r.b 3.j z n G.'.'.].i.J J 5 z.zXMXMXMXlXS.O.< X                                 ",
"                                          + f k k c c u ^ F l V V B P ^ F D k N.D.D.D.D.l.7 .         0 D -                     ",
"                                              , , , , F 3X) _ / [ / _ ) 2X_ D 1 1 y J u p             0 J ;                     ",
"                                              = H H H ` 2X^ H G G G ^ 2X2X2X` A > 0 p 7       X.+.a                             ",
"                                              ; H.K.K.H.E 9 , o = F 9 G H.K.K.p.8 3           0XrXa                             ",
"                                              = M 4.4.4.v 5 @     @ 4 v 9.4.4.M ; o           # #     L ! 1                     ",
"                                            . - k g c c v 4 X       + b b c k P 5 ;                   S I e                     ",
"                                  # y 8 0 0 ; V k.h.8.c j - 8 0 0 y e j k b y.s.a.o.; 8 8 y #         3 - o                     ",
"                          # L L L  .>.;.;.Q ; w.r.t.w.k 5 : ! ;.;.>.I 5 k c t.y.u.Y W ;.:.>. .L L L L X                         ",
"                          8 &.&.&.;.;.;.;.! > j k k k T 1 < ' ;.;.;.I , k c k k c u ! ;.;.:.;.&.&.] ] #                         ",
"                            X . # -.Q Q Q K , 1 1 1 1 e K ! Q Q Q Q W K 1 1 , ; ; , K Q Q Q Q Q @ . .                           ",
"                                                                                                                                ",
"                                                                                                                                ",
"                                                                                                                                "
};
